<mxfile host="app.diagrams.net" agent="Mozilla/5.0 (Windows NT 10.0; Win64; x64) AppleWebKit/537.36 (KHTML, like Gecko) Chrome/134.0.0.0 Safari/537.36" version="26.1.1">
  <diagram name="Страница — 1" id="ngjUJeZ0ANsFLmgLKtun">
    <mxGraphModel grid="1" page="1" gridSize="10" guides="1" tooltips="1" connect="1" arrows="1" fold="1" pageScale="1" pageWidth="827" pageHeight="1169" math="0" shadow="0">
      <root>
        <mxCell id="0" />
        <mxCell id="1" parent="0" />
        <mxCell id="gBlH9YvF4Skhn-Lli2iF-24" value="&lt;div style=&quot;font-size: 1px&quot;&gt;&lt;font style=&quot;font-size: 22.58px; font-family: Arial; color: rgb(0, 0, 0); direction: ltr; letter-spacing: 0px; line-height: 120%; opacity: 1;&quot;&gt;&lt;br&gt;&lt;/font&gt;&lt;/div&gt;" style="verticalAlign=middle;align=center;overflow=width;vsdxID=5;fillColor=#e3ebff;gradientColor=none;shape=stencil(vVNBDsIgEHwNRwxCjHqu+g9iaUtEaBa09fdSwdpi9dBDb8vOwOwsGcQyW/FaIEqsA3MRjcxdhdgBUSp1JUA6XyF2RCwrDIgSzE3n4VzzjtlVV3PvXmjDPdLdoOQRTrvtavNqnAKXw9mDELkBIhDJaxrJZIy/YRLfbjFvpcVgHHfS6JGu4lAK7GVwoXg5gmwjRP3VjoMpqQcm9tPKs0z0Y6crWcBHqt0PN8tJspXFfmNKdpaBH8tYwML/VPjiE6dCKhXSOMTT+PlWiC47PgE=);strokeColor=none;spacingTop=-3;spacingBottom=-3;spacingLeft=-3;spacingRight=-3;points=[];labelBackgroundColor=none;rounded=0;html=1;whiteSpace=wrap;" vertex="1" parent="1">
          <mxGeometry x="-330" y="270" width="500" height="640" as="geometry" />
        </mxCell>
        <mxCell id="gBlH9YvF4Skhn-Lli2iF-26" value="&lt;div style=&quot;font-size: 1px&quot;&gt;&lt;font style=&quot;font-size: 22.58px; font-family: Arial; color: rgb(0, 0, 0); direction: ltr; letter-spacing: 0px; line-height: 120%; opacity: 1;&quot;&gt;&lt;br&gt;&lt;/font&gt;&lt;/div&gt;" style="verticalAlign=middle;align=center;overflow=width;vsdxID=5;fillColor=#e3ebff;gradientColor=none;shape=stencil(vVNBDsIgEHwNRwxCjHqu+g9iaUtEaBa09fdSwdpi9dBDb8vOwOwsGcQyW/FaIEqsA3MRjcxdhdgBUSp1JUA6XyF2RCwrDIgSzE3n4VzzjtlVV3PvXmjDPdLdoOQRTrvtavNqnAKXw9mDELkBIhDJaxrJZIy/YRLfbjFvpcVgHHfS6JGu4lAK7GVwoXg5gmwjRP3VjoMpqQcm9tPKs0z0Y6crWcBHqt0PN8tJspXFfmNKdpaBH8tYwML/VPjiE6dCKhXSOMTT+PlWiC47PgE=);strokeColor=none;spacingTop=-3;spacingBottom=-3;spacingLeft=-3;spacingRight=-3;points=[];labelBackgroundColor=none;rounded=0;html=1;whiteSpace=wrap;" vertex="1" parent="1">
          <mxGeometry x="760" y="270" width="550" height="640" as="geometry" />
        </mxCell>
        <mxCell id="gBlH9YvF4Skhn-Lli2iF-25" value="&lt;div style=&quot;font-size: 1px&quot;&gt;&lt;font style=&quot;font-size: 22.58px; font-family: Arial; color: rgb(0, 0, 0); direction: ltr; letter-spacing: 0px; line-height: 120%; opacity: 1;&quot;&gt;&lt;br&gt;&lt;/font&gt;&lt;/div&gt;" style="verticalAlign=middle;align=center;overflow=width;vsdxID=5;fillColor=#e3ebff;gradientColor=none;shape=stencil(vVNBDsIgEHwNRwxCjHqu+g9iaUtEaBa09fdSwdpi9dBDb8vOwOwsGcQyW/FaIEqsA3MRjcxdhdgBUSp1JUA6XyF2RCwrDIgSzE3n4VzzjtlVV3PvXmjDPdLdoOQRTrvtavNqnAKXw9mDELkBIhDJaxrJZIy/YRLfbjFvpcVgHHfS6JGu4lAK7GVwoXg5gmwjRP3VjoMpqQcm9tPKs0z0Y6crWcBHqt0PN8tJspXFfmNKdpaBH8tYwML/VPjiE6dCKhXSOMTT+PlWiC47PgE=);strokeColor=none;spacingTop=-3;spacingBottom=-3;spacingLeft=-3;spacingRight=-3;points=[];labelBackgroundColor=none;rounded=0;html=1;whiteSpace=wrap;" vertex="1" parent="1">
          <mxGeometry x="185" y="270" width="535" height="660" as="geometry" />
        </mxCell>
        <mxCell id="gBlH9YvF4Skhn-Lli2iF-143" style="vsdxID=6;fillColor=none;gradientColor=none;shape=stencil(vVNdD4IgFP01POIQms1nq//BEpVF4q6U9u/DoFJxPdjm2/04cO65cBDL2oo3AlHSGtAX0cncVIgdEKWyrgRIYyPEjohlhQZRgr7VucsbPiCH6Krvww29O0eGE5Q8XJaSaPcqnByWw9k2wWNZRFMHhzc+SlwhQHhATDxBj3kvWwzacCN1PSFXHEqBLRcuFC8nrbYTognKfjol65GSNIn28SL5SjGf2efL2UBMwO1nWykl3M1mzxJ8ib/eZHkrG8j47RMbfA1WSKWcP8f9uSFtyZmZHZ8=);strokeColor=#5282ff;spacingTop=-3;spacingBottom=-3;spacingLeft=-3;spacingRight=-3;points=[];labelBackgroundColor=none;rounded=0;html=1;whiteSpace=wrap;" vertex="1" parent="1">
          <mxGeometry x="-420" y="790" width="1692.5" height="70" as="geometry" />
        </mxCell>
        <mxCell id="gBlH9YvF4Skhn-Lli2iF-140" style="vsdxID=5;fillColor=none;gradientColor=none;strokeColor=none;spacingTop=-3;spacingBottom=-3;spacingLeft=-3;spacingRight=-3;points=[];labelBackgroundColor=none;rounded=0;html=1;whiteSpace=wrap;" vertex="1" parent="1">
          <mxGeometry x="-335" y="710" width="1605" height="72" as="geometry" />
        </mxCell>
        <mxCell id="gBlH9YvF4Skhn-Lli2iF-141" style="vsdxID=6;fillColor=none;gradientColor=none;shape=stencil(vVNdD4IgFP01POIQms1nq//BEpVF4q6U9u/DoFJxPdjm2/04cO65cBDL2oo3AlHSGtAX0cncVIgdEKWyrgRIYyPEjohlhQZRgr7VucsbPiCH6Krvww29O0eGE5Q8XJaSaPcqnByWw9k2wWNZRFMHhzc+SlwhQHhATDxBj3kvWwzacCN1PSFXHEqBLRcuFC8nrbYTognKfjol65GSNIn28SL5SjGf2efL2UBMwO1nWykl3M1mzxJ8ib/eZHkrG8j47RMbfA1WSKWcP8f9uSFtyZmZHZ8=);strokeColor=#5282ff;spacingTop=-3;spacingBottom=-3;spacingLeft=-3;spacingRight=-3;points=[];labelBackgroundColor=none;rounded=0;html=1;whiteSpace=wrap;" vertex="1" parent="gBlH9YvF4Skhn-Lli2iF-140">
          <mxGeometry x="-81.52380952380952" width="1686.5238095238094" height="70" as="geometry" />
        </mxCell>
        <mxCell id="gBlH9YvF4Skhn-Lli2iF-133" value="core-db replica" style="shape=cylinder3;whiteSpace=wrap;html=1;boundedLbl=1;backgroundOutline=1;size=15;" vertex="1" parent="gBlH9YvF4Skhn-Lli2iF-140">
          <mxGeometry x="1125" y="10" width="130" height="50" as="geometry" />
        </mxCell>
        <mxCell id="gBlH9YvF4Skhn-Lli2iF-21" value="" style="shape=actor;whiteSpace=wrap;html=1;" vertex="1" parent="1">
          <mxGeometry x="340" width="40" height="60" as="geometry" />
        </mxCell>
        <mxCell id="gBlH9YvF4Skhn-Lli2iF-27" value="&amp;nbsp;ЦОД 2 (Владивосток)" style="text;html=1;align=center;verticalAlign=middle;whiteSpace=wrap;rounded=0;" vertex="1" parent="1">
          <mxGeometry x="10" y="270" width="60" height="30" as="geometry" />
        </mxCell>
        <mxCell id="gBlH9YvF4Skhn-Lli2iF-28" value="ЦОД 1 (Москва)" style="text;html=1;align=center;verticalAlign=middle;whiteSpace=wrap;rounded=0;" vertex="1" parent="1">
          <mxGeometry x="630" y="280" width="60" height="30" as="geometry" />
        </mxCell>
        <mxCell id="gBlH9YvF4Skhn-Lli2iF-29" value="ЦОД 3 (Новосибирск)" style="text;html=1;align=center;verticalAlign=middle;whiteSpace=wrap;rounded=0;" vertex="1" parent="1">
          <mxGeometry x="1200" y="280" width="60" height="30" as="geometry" />
        </mxCell>
        <mxCell id="gBlH9YvF4Skhn-Lli2iF-30" value="&lt;div style=&quot;&quot;&gt;&lt;font face=&quot;Arial&quot;&gt;&lt;span style=&quot;font-size: 22.58px;&quot;&gt;GSLB&lt;/span&gt;&lt;/font&gt;&lt;/div&gt;" style="verticalAlign=middle;align=center;overflow=width;vsdxID=5;fillColor=#e3ebff;gradientColor=none;shape=stencil(vVNBDsIgEHwNRwxCjHqu+g9iaUtEaBa09fdSwdpi9dBDb8vOwOwsGcQyW/FaIEqsA3MRjcxdhdgBUSp1JUA6XyF2RCwrDIgSzE3n4VzzjtlVV3PvXmjDPdLdoOQRTrvtavNqnAKXw9mDELkBIhDJaxrJZIy/YRLfbjFvpcVgHHfS6JGu4lAK7GVwoXg5gmwjRP3VjoMpqQcm9tPKs0z0Y6crWcBHqt0PN8tJspXFfmNKdpaBH8tYwML/VPjiE6dCKhXSOMTT+PlWiC47PgE=);strokeColor=none;spacingTop=-3;spacingBottom=-3;spacingLeft=-3;spacingRight=-3;points=[];labelBackgroundColor=none;rounded=0;html=1;whiteSpace=wrap;" vertex="1" parent="1">
          <mxGeometry x="270" y="110" width="190" height="60" as="geometry" />
        </mxCell>
        <mxCell id="gBlH9YvF4Skhn-Lli2iF-31" value="" style="shape=image;verticalLabelPosition=bottom;verticalAlign=top;imageAspect=0;aspect=fixed;image=data:image/svg+xml,PHN2ZyB4bWxucz0iaHR0cDovL3d3dy53My5vcmcvMjAwMC9zdmciIHdpZHRoPSIzMiIgaGVpZ2h0PSIzMiIgdmlld0JveD0iMCAwIDMyIDMyIiBmaWxsPSJub25lIj4mI3hhOzxwYXRoIGQ9Ik0wIDE2QzAgNy4xNjM0NCA3LjE2MzQ0IDAgMTYgMFYwQzI0LjgzNjYgMCAzMiA3LjE2MzQ0IDMyIDE2VjE2QzMyIDI0LjgzNjYgMjQuODM2NiAzMiAxNiAzMlYzMkM3LjE2MzQ0IDMyIDAgMjQuODM2NiAwIDE2VjE2WiIgZmlsbD0iIzUyODJGRiIvPiYjeGE7PHBhdGggZD0iTTE3IDE3SDE5LjNDMTkuNyAxNy42IDIwLjMgMTggMjEgMThDMjIuMSAxOCAyMyAxNy4xIDIzIDE2QzIzIDE0LjkgMjIuMSAxNCAyMSAxNEMyMC4zIDE0IDE5LjYgMTQuNCAxOS4zIDE1SDE3VjExSDE5LjNDMTkuNyAxMS42IDIwLjMgMTIgMjEgMTJDMjIuMSAxMiAyMyAxMS4xIDIzIDEwQzIzIDguOSAyMi4xIDggMjEgOEMyMC4zIDggMTkuNiA4LjQgMTkuMyA5SDE3QzE1LjkgOSAxNSA5LjkgMTUgMTFWMTUuM0wxMCAxMlYxNUg3VjE3SDEwVjIwTDE1IDE2LjdWMjFDMTUgMjIuMSAxNS45IDIzIDE3IDIzSDE5LjNDMTkuNyAyMy42IDIwLjMgMjQgMjEgMjRDMjIuMSAyNCAyMyAyMy4xIDIzIDIyQzIzIDIwLjkgMjIuMSAyMCAyMSAyMEMyMC4zIDIwIDE5LjYgMjAuNCAxOS4zIDIxSDE3VjE3WiIgZmlsbD0id2hpdGUiLz4mI3hhOzwvc3ZnPg==;" vertex="1" parent="1">
          <mxGeometry x="410" y="126" width="32" height="32" as="geometry" />
        </mxCell>
        <mxCell id="gBlH9YvF4Skhn-Lli2iF-32" value="" style="shape=image;verticalLabelPosition=bottom;verticalAlign=top;imageAspect=0;aspect=fixed;image=data:image/svg+xml,PHN2ZyB4bWxucz0iaHR0cDovL3d3dy53My5vcmcvMjAwMC9zdmciIGZpbGw9Im5vbmUiIHZpZXdCb3g9IjAgMCAzMiAzMiIgaGVpZ2h0PSIzMiIgd2lkdGg9IjMyIj4mI3hhOzxyZWN0IGZpbGw9IiM1MjgyRkYiIHJ4PSIxNiIgaGVpZ2h0PSIzMiIgd2lkdGg9IjMyIi8+JiN4YTs8cGF0aCBmaWxsPSJ3aGl0ZSIgZD0iTTggMjAuMDAyVjExSDEwLjE1QzExLjE3NSAxMSAxMS45MDcgMTEuMjI4IDEyLjM0MyAxMS42ODVDMTIuNzgxIDEyLjE0MyAxMyAxMi45MDcgMTMgMTMuOTc4VjE2LjQ5OEMxMy4wMDQgMTcuODUyIDEyLjgxMiAxOC43NzMgMTIuNDI1IDE5LjI2NEMxMi4wNCAxOS43NTQgMTEuMzExIDIwLjAwMSAxMC4yNCAyMC4wMDFMOCAyMC4wMDJaTTE0IDIwLjAwMlYxMUgxNkwxNy42OTIgMTcuNTk3VjExSDE5VjIwLjAwMUgxN0wxNS4zMSAxMy4zMzlWMjAuMDAxTDE0IDIwLjAwMlpNMjAuNDU1IDE5LjQxNUMyMC4xNTIgMTkuMDI0IDIwIDE4LjM4NiAyMCAxNy41MDRWMTcuMTYySDIxLjI4OFYxNy40MjJDMjEuMjgxIDE3Ljg0NCAyMS4zMzggMTguMTYgMjEuNDU4IDE4LjM3QzIxLjU3NiAxOC41ODEgMjEuNzU4IDE4LjY4NiAyMi4wMDEgMTguNjg2QzIyLjEwNzMgMTguNjkxNyAyMi4yMTMgMTguNjY4MSAyMi4zMDY4IDE4LjYxNzhDMjIuNDAwNiAxOC41Njc2IDIyLjQ3ODkgMTguNDkyNiAyMi41MzMgMTguNDAxQzIyLjY1MSAxOC4yMTEgMjIuNzA4IDE3LjkyNSAyMi43MDggMTcuNTQxQzIyLjcwOCAxNy4yNTYgMjIuNjM4IDE3LjAxMSAyMi40OTMgMTYuODAzQzIyLjM1MiAxNi41OTcgMjIuMTA0IDE2LjM3OCAyMS43NDggMTYuMTQ3QzIxLjEyOCAxNS43NDYgMjAuNjkzIDE1LjM1MyAyMC40NDcgMTQuOTYzQzIwLjE5OSAxNC41OCAyMC4wNzUgMTQuMTAzIDIwLjA3NSAxMy41MzNDMjAuMDc1IDEyLjY4NyAyMC4yNDEgMTIuMDUzIDIwLjU3MyAxMS42MzJDMjAuOTA3IDExLjIxMSAyMS40MDcgMTEgMjIuMDc1IDExQzIyLjc2MSAxMSAyMy4yNDUgMTEuMTk2IDIzLjUyOCAxMS41ODhDMjMuNzk1IDExLjk2IDIzLjkyNCAxMi41NTggMjMuOTIxIDEzLjM4NEwyMy45MjMgMTMuNTc2VjEzLjgzNkgyMi42MzVWMTMuNTc2QzIyLjY0MSAxMy4xMTQgMjIuNTk5IDEyLjc4OCAyMi41MDggMTIuNTk3QzIyLjQxOCAxMi40MDggMjIuMjYgMTIuMzEzIDIyLjAzNSAxMi4zMTNDMjEuOTM1NCAxMi4zMDc0IDIxLjgzNjEgMTIuMzI4OCAyMS43NDc3IDEyLjM3NTJDMjEuNjU5MyAxMi40MjE1IDIxLjU4NTEgMTIuNDkwOSAyMS41MzMgMTIuNTc2QzIxLjQyMSAxMi43NTIgMjEuMzY3IDEzLjAxNSAyMS4zNjcgMTMuMzY2QzIxLjM2NyAxMy42MzggMjEuNDMyIDEzLjg3MSAyMS41NjUgMTQuMDY2QzIxLjY5MyAxNC4yNiAyMS45MjMgMTQuNDYyIDIyLjI1MiAxNC42NzJDMjIuODk5IDE1LjA5NCAyMy4zNTIgMTUuNTA1IDIzLjYxMSAxNS45MDVDMjMuODcxIDE2LjMwNiAyNCAxNi43OTcgMjQgMTcuMzhDMjQgMTguMjU0IDIzLjgzMyAxOC45MSAyMy41MDEgMTkuMzQ1QzIzLjE2OCAxOS43ODEgMjIuNjY4IDE5Ljk5OSAyMiAxOS45OTlDMjEuMjcyIDE5Ljk5OSAyMC43NTYgMTkuODA0IDIwLjQ1NSAxOS40MTVaTTExLjEgMTguMjk1QzExLjI3NiAxOC4wNTggMTEuMzY1IDE3LjYwMiAxMS4zNjUgMTYuOTI2VjEzLjk1NEMxMS4zNjUgMTMuMzQ0IDExLjI2NyAxMi45MjUgMTEuMDY4IDEyLjY5NkMxMC44NzEgMTIuNDY2IDEwLjUwOCAxMi4zNTIgOS45OCAxMi4zNTJIOS42MzZWMTguNjQ4SDEwLjA2NkMxMC41NzcgMTguNjQ4IDEwLjkyMyAxOC41MyAxMS4xIDE4LjI5NlYxOC4yOTVaIi8+JiN4YTs8L3N2Zz4=;" vertex="1" parent="1">
          <mxGeometry x="280" y="126" width="32" height="32" as="geometry" />
        </mxCell>
        <mxCell id="gBlH9YvF4Skhn-Lli2iF-33" style="edgeStyle=orthogonalEdgeStyle;rounded=0;orthogonalLoop=1;jettySize=auto;html=1;entryX=0.477;entryY=0.019;entryDx=0;entryDy=0;entryPerimeter=0;" edge="1" parent="1" source="gBlH9YvF4Skhn-Lli2iF-21" target="gBlH9YvF4Skhn-Lli2iF-30">
          <mxGeometry relative="1" as="geometry" />
        </mxCell>
        <mxCell id="gBlH9YvF4Skhn-Lli2iF-34" style="vsdxID=5;fillColor=none;gradientColor=none;strokeColor=none;spacingTop=-3;spacingBottom=-3;spacingLeft=-3;spacingRight=-3;points=[];labelBackgroundColor=none;rounded=0;html=1;whiteSpace=wrap;" vertex="1" parent="1">
          <mxGeometry x="-310" y="320" width="450" height="290" as="geometry" />
        </mxCell>
        <mxCell id="gBlH9YvF4Skhn-Lli2iF-35" style="vsdxID=6;fillColor=none;gradientColor=none;shape=stencil(vVNdD4IgFP01POIQms1nq//BEpVF4q6U9u/DoFJxPdjm2/04cO65cBDL2oo3AlHSGtAX0cncVIgdEKWyrgRIYyPEjohlhQZRgr7VucsbPiCH6Krvww29O0eGE5Q8XJaSaPcqnByWw9k2wWNZRFMHhzc+SlwhQHhATDxBj3kvWwzacCN1PSFXHEqBLRcuFC8nrbYTognKfjol65GSNIn28SL5SjGf2efL2UBMwO1nWykl3M1mzxJ8ib/eZHkrG8j47RMbfA1WSKWcP8f9uSFtyZmZHZ8=);strokeColor=#5282ff;spacingTop=-3;spacingBottom=-3;spacingLeft=-3;spacingRight=-3;points=[];labelBackgroundColor=none;rounded=0;html=1;whiteSpace=wrap;" vertex="1" parent="gBlH9YvF4Skhn-Lli2iF-34">
          <mxGeometry width="450" height="290" as="geometry" />
        </mxCell>
        <mxCell id="gBlH9YvF4Skhn-Lli2iF-36" value="&lt;div style=&quot;&quot;&gt;&lt;font style=&quot;font-family: Arial; color: rgb(0, 0, 0); direction: ltr; letter-spacing: 0px; line-height: 120%; opacity: 1; font-size: 17px;&quot;&gt;Kubernetes cluster 2&lt;/font&gt;&lt;/div&gt;" style="verticalAlign=middle;align=center;overflow=width;vsdxID=7;fillColor=none;gradientColor=none;shape=stencil(nZBLDoAgDERP0z3SIyjew0SURgSD+Lu9kMZoXLhwN9O+tukAlrNpJg1SzDH4QW/URgNYgZTkjA4UkwJUgGXng+6DX1zLfmoymdXo17xh5zmRJ6Q42BWCfc2oJfdAr+Yv+AP9Cb7OJ3H/2JG1HNGz/84klThPVCc=);strokeColor=none;points=[];labelBackgroundColor=none;rounded=0;html=1;whiteSpace=wrap;" vertex="1" parent="gBlH9YvF4Skhn-Lli2iF-34">
          <mxGeometry x="-7.23" y="-34.91" width="195.96774193548387" height="107.19999999999999" as="geometry" />
        </mxCell>
        <mxCell id="gBlH9YvF4Skhn-Lli2iF-37" value="" style="shape=image;verticalLabelPosition=bottom;verticalAlign=top;imageAspect=0;aspect=fixed;image=data:image/svg+xml,PHN2ZyB4bWxucz0iaHR0cDovL3d3dy53My5vcmcvMjAwMC9zdmciIGZpbGw9Im5vbmUiIHZpZXdCb3g9IjAgMCAzMiAzMiIgaGVpZ2h0PSIzMiIgd2lkdGg9IjMyIj4mI3hhOzxyZWN0IGZpbGw9IiM1MjgyRkYiIHJ4PSIxNiIgaGVpZ2h0PSIzMiIgd2lkdGg9IjMyIi8+JiN4YTs8cGF0aCBmaWxsPSJ3aGl0ZSIgZD0iTTExLjM0MTMgMjEuNjAwMUw4LjIyNDE4IDE2LjI0OTVDOC4wODEyNiAxNi4wMDgxIDguMDAzOTkgMTUuNzMzIDguMDAwMTUgMTUuNDUxOUM3Ljk5NjMxIDE1LjE3MDggOC4wNjYwNSAxNC44OTM3IDguMjAyMzMgMTQuNjQ4NEwxMS4xNTU1IDkuNDI4OTVDMTEuMjA0NCA5LjM0NzAyIDExLjI3MzggOS4yNzk0NyAxMS4zNTY3IDkuMjMzMDZDMTEuNDM5NyA5LjE4NjY1IDExLjUzMzMgOS4xNjMwMyAxMS42MjgyIDkuMTY0NTVDMTEuNzIzIDkuMTY2MDcgMTEuODE1OSA5LjE5MjY4IDExLjg5NzMgOS4yNDE3MkMxMS45Nzg4IDkuMjkwNzYgMTIuMDQ2IDkuMzYwNTEgMTIuMDkyMiA5LjQ0Mzk2TDE1LjIwNzMgMTQuNzc3NUMxNS4zNTA3IDE1LjAxODcgMTUuNDI4NSAxNS4yOTM2IDE1LjQzMjkgMTUuNTc0N0MxNS40MzcyIDE1Ljg1NTggMTUuMzY4IDE2LjEzMyAxNS4yMzIyIDE2LjM3ODZMMTIuMjc5IDIxLjYxNjFDMTIuMjMwMSAyMS42OTgyIDEyLjE2MDYgMjEuNzY1OSAxMi4wNzc1IDIxLjgxMjRDMTEuOTk0NCAyMS44NTg5IDExLjkwMDYgMjEuODgyNSAxMS44MDU1IDIxLjg4MDlDMTEuNzEwNSAyMS44NzkyIDExLjYxNzUgMjEuODUyNCAxMS41MzYxIDIxLjgwMzFDMTEuNDU0NiAyMS43NTM5IDExLjM4NzQgMjEuNjgzOCAxMS4zNDEzIDIxLjYwMDFaTTEzLjU1NzQgOEwxOS40NjQ4IDguMDEwMDFDMTkuNzQ3IDguMDEwMzMgMjAuMDI0MiA4LjA4NTYxIDIwLjI2ODQgOC4yMjgyNkMyMC41MTI1IDguMzcwOTIgMjAuNzE1IDguNTc1OSAyMC44NTU0IDguODIyNTVMMjMuOSAxNC4xNjAxQzIzLjk0OCAxNC4yNDUxIDIzLjk3MzIgMTQuMzQxMiAyMy45NzMzIDE0LjQzOUMyMy45NzM0IDE0LjUzNjggMjMuOTQ4MyAxNC42MzMgMjMuOTAwNCAxNC43MTgxQzIzLjg1MjYgMTQuODAzMiAyMy43ODM3IDE0Ljg3NDMgMjMuNzAwNCAxNC45MjQ1QzIzLjYxNzEgMTQuOTc0OCAyMy41MjIzIDE1LjAwMjQgMjMuNDI1MiAxNS4wMDQ3SDE3LjUzNTdDMTcuMjUxOCAxNS4wMDA5IDE2Ljk3MzggMTQuOTIyMiAxNi43Mjk1IDE0Ljc3NjVDMTYuNDg1MSAxNC42MzA3IDE2LjI4MjkgMTQuNDIzMSAxNi4xNDMxIDE0LjE3NDFMMTMuMDgyNiA4LjgyNjU1QzEzLjAzNDYgOC43NDI2MSAxMy4wMDk0IDguNjQ3NDIgMTMuMDA5NSA4LjU1MDU1QzEzLjAwOTcgOC40NTM2OSAxMy4wMzUyIDguMzU4NTcgMTMuMDgzNCA4LjI3NDc3QzEzLjEzMTYgOC4xOTA5NyAxMy4yMDA5IDguMTIxNDYgMTMuMjg0MyA4LjA3MzIyQzEzLjM2NzcgOC4wMjQ5OSAxMy40NjIyIDcuOTk5NzMgMTMuNTU4NCA4SDEzLjU1NzRaTTEzLjU1OTQgMjIuOTk2TDE5LjQ4MDcgMjNDMTkuNzYzNiAyMi45OTk5IDIwLjA0MTUgMjIuOTI0NiAyMC4yODY0IDIyLjc4MThDMjAuNTMxMiAyMi42Mzg5IDIwLjczNDQgMjIuNDMzNiAyMC44NzUzIDIyLjE4NjVMMjMuOTI2OCAxNi44MzU5QzIzLjk3NDggMTYuNzUxOCAyNCAxNi42NTY0IDI0IDE2LjU1OTRDMjQgMTYuNDYyNCAyMy45NzQ2IDE2LjM2NzEgMjMuOTI2NiAxNi4yODNDMjMuODc4NSAxNi4xOTkgMjMuODA5NCAxNi4xMjkxIDIzLjcyNjEgMTYuMDgwM0MyMy42NDI4IDE2LjAzMTYgMjMuNTQ4MyAxNi4wMDU3IDIzLjQ1MiAxNi4wMDUzSDE3LjI1NTZDMTcuMDA2MiAxNi4wMDcgMTYuNzYzMSAxNi4wODQyIDE2LjU1OCAxNi4yMjdDMTYuMzUyOCAxNi4zNjk4IDE2LjE5NTEgMTYuNTcxNSAxNi4xMDUzIDE2LjgwNTlMMTMuMDgzNiAyMi4xNjc0QzEzLjAzNTQgMjIuMjUxNSAxMy4wMTAxIDIyLjM0NjggMTMuMDEwMSAyMi40NDM5QzEzLjAxMDIgMjIuNTQwOSAxMy4wMzU2IDIyLjYzNjIgMTMuMDgzOCAyMi43MjAyQzEzLjEzMjEgMjIuODA0MiAxMy4yMDE0IDIyLjg3MzkgMTMuMjg0OSAyMi45MjI0QzEzLjM2ODQgMjIuOTcwOCAxMy40NjMxIDIyLjk5NjIgMTMuNTU5NCAyMi45OTZaIi8+JiN4YTs8L3N2Zz4=;" vertex="1" parent="gBlH9YvF4Skhn-Lli2iF-34">
          <mxGeometry x="169.99806451612903" y="2.687272727272724" width="32" height="32" as="geometry" />
        </mxCell>
        <mxCell id="gBlH9YvF4Skhn-Lli2iF-57" value="Active failover" style="text;html=1;align=center;verticalAlign=middle;whiteSpace=wrap;rounded=0;" vertex="1" parent="gBlH9YvF4Skhn-Lli2iF-34">
          <mxGeometry x="319.3548387096774" y="-1.7763568394002505e-15" width="130.6451612903226" height="33.599999999999994" as="geometry" />
        </mxCell>
        <mxCell id="gBlH9YvF4Skhn-Lli2iF-63" value="&lt;div style=&quot;&quot;&gt;&lt;font style=&quot;font-family: Arial; color: rgb(0, 0, 0); direction: ltr; letter-spacing: 0px; line-height: 120%; opacity: 1; font-size: 16px;&quot;&gt;InsureTech Web (frontend)&lt;/font&gt;&lt;/div&gt;" style="verticalAlign=middle;align=center;overflow=width;vsdxID=5;fillColor=#fff2bf;gradientColor=none;shape=stencil(vVNBDsIgEHwNRwxCjHqu+g9iaUtEaBa09fdSwdpi9dBDb8vOwOwsGcQyW/FaIEqsA3MRjcxdhdgBUSp1JUA6XyF2RCwrDIgSzE3n4VzzjtlVV3PvXmjDPdLdoOQRTrvtavNqnAKXw9mDELkBIhDJaxrJZIy/YRLfbjFvpcVgHHfS6JGu4lAK7GVwoXg5gmwjRP3VjoMpqQcm9tPKs0z0Y6crWcBHqt0PN8tJspXFfmNKdpaBH8tYwML/VPjiE6dCKhXSOMTT+PlWiC47PgE=);strokeColor=none;spacingTop=-3;spacingBottom=-3;spacingLeft=-3;spacingRight=-3;points=[];labelBackgroundColor=none;rounded=0;html=1;whiteSpace=wrap;fontFamily=Helvetica;fontSize=12;fontColor=default;" vertex="1" parent="gBlH9YvF4Skhn-Lli2iF-34">
          <mxGeometry x="90" y="50" width="280" height="50" as="geometry" />
        </mxCell>
        <mxCell id="gBlH9YvF4Skhn-Lli2iF-72" style="edgeStyle=orthogonalEdgeStyle;rounded=0;orthogonalLoop=1;jettySize=auto;html=1;" edge="1" parent="gBlH9YvF4Skhn-Lli2iF-34" source="gBlH9YvF4Skhn-Lli2iF-64" target="gBlH9YvF4Skhn-Lli2iF-66">
          <mxGeometry relative="1" as="geometry" />
        </mxCell>
        <mxCell id="gBlH9YvF4Skhn-Lli2iF-64" value="&lt;div style=&quot;&quot;&gt;&lt;font style=&quot;font-family: Arial; color: rgb(0, 0, 0); direction: ltr; letter-spacing: 0px; line-height: 120%; opacity: 1; font-size: 16px;&quot;&gt;core-app&lt;/font&gt;&lt;/div&gt;" style="verticalAlign=middle;align=center;overflow=width;vsdxID=5;fillColor=#fff2bf;gradientColor=none;shape=stencil(vVNBDsIgEHwNRwxCjHqu+g9iaUtEaBa09fdSwdpi9dBDb8vOwOwsGcQyW/FaIEqsA3MRjcxdhdgBUSp1JUA6XyF2RCwrDIgSzE3n4VzzjtlVV3PvXmjDPdLdoOQRTrvtavNqnAKXw9mDELkBIhDJaxrJZIy/YRLfbjFvpcVgHHfS6JGu4lAK7GVwoXg5gmwjRP3VjoMpqQcm9tPKs0z0Y6crWcBHqt0PN8tJspXFfmNKdpaBH8tYwML/VPjiE6dCKhXSOMTT+PlWiC47PgE=);strokeColor=none;spacingTop=-3;spacingBottom=-3;spacingLeft=-3;spacingRight=-3;points=[];labelBackgroundColor=none;rounded=0;html=1;whiteSpace=wrap;fontFamily=Helvetica;fontSize=12;fontColor=default;" vertex="1" parent="gBlH9YvF4Skhn-Lli2iF-34">
          <mxGeometry x="80" y="140" width="120" height="30" as="geometry" />
        </mxCell>
        <mxCell id="gBlH9YvF4Skhn-Lli2iF-65" value="&lt;div style=&quot;&quot;&gt;&lt;font style=&quot;font-family: Arial; color: rgb(0, 0, 0); direction: ltr; letter-spacing: 0px; line-height: 120%; opacity: 1; font-size: 16px;&quot;&gt;client-info&lt;/font&gt;&lt;/div&gt;" style="verticalAlign=middle;align=center;overflow=width;vsdxID=5;fillColor=#fff2bf;gradientColor=none;shape=stencil(vVNBDsIgEHwNRwxCjHqu+g9iaUtEaBa09fdSwdpi9dBDb8vOwOwsGcQyW/FaIEqsA3MRjcxdhdgBUSp1JUA6XyF2RCwrDIgSzE3n4VzzjtlVV3PvXmjDPdLdoOQRTrvtavNqnAKXw9mDELkBIhDJaxrJZIy/YRLfbjFvpcVgHHfS6JGu4lAK7GVwoXg5gmwjRP3VjoMpqQcm9tPKs0z0Y6crWcBHqt0PN8tJspXFfmNKdpaBH8tYwML/VPjiE6dCKhXSOMTT+PlWiC47PgE=);strokeColor=none;spacingTop=-3;spacingBottom=-3;spacingLeft=-3;spacingRight=-3;points=[];labelBackgroundColor=none;rounded=0;html=1;whiteSpace=wrap;fontFamily=Helvetica;fontSize=12;fontColor=default;" vertex="1" parent="gBlH9YvF4Skhn-Lli2iF-34">
          <mxGeometry x="70" y="220" width="120" height="30" as="geometry" />
        </mxCell>
        <mxCell id="gBlH9YvF4Skhn-Lli2iF-66" value="&lt;div style=&quot;&quot;&gt;&lt;font style=&quot;font-family: Arial; color: rgb(0, 0, 0); direction: ltr; letter-spacing: 0px; line-height: 120%; opacity: 1; font-size: 16px;&quot;&gt;ins-product-aggregator&lt;/font&gt;&lt;/div&gt;" style="verticalAlign=middle;align=center;overflow=width;vsdxID=5;fillColor=#fff2bf;gradientColor=none;shape=stencil(vVNBDsIgEHwNRwxCjHqu+g9iaUtEaBa09fdSwdpi9dBDb8vOwOwsGcQyW/FaIEqsA3MRjcxdhdgBUSp1JUA6XyF2RCwrDIgSzE3n4VzzjtlVV3PvXmjDPdLdoOQRTrvtavNqnAKXw9mDELkBIhDJaxrJZIy/YRLfbjFvpcVgHHfS6JGu4lAK7GVwoXg5gmwjRP3VjoMpqQcm9tPKs0z0Y6crWcBHqt0PN8tJspXFfmNKdpaBH8tYwML/VPjiE6dCKhXSOMTT+PlWiC47PgE=);strokeColor=none;spacingTop=-3;spacingBottom=-3;spacingLeft=-3;spacingRight=-3;points=[];labelBackgroundColor=none;rounded=0;html=1;whiteSpace=wrap;fontFamily=Helvetica;fontSize=12;fontColor=default;" vertex="1" parent="gBlH9YvF4Skhn-Lli2iF-34">
          <mxGeometry x="240" y="135" width="150" height="40" as="geometry" />
        </mxCell>
        <mxCell id="gBlH9YvF4Skhn-Lli2iF-81" style="edgeStyle=orthogonalEdgeStyle;rounded=0;orthogonalLoop=1;jettySize=auto;html=1;" edge="1" parent="gBlH9YvF4Skhn-Lli2iF-34" source="gBlH9YvF4Skhn-Lli2iF-67">
          <mxGeometry relative="1" as="geometry">
            <mxPoint x="200" y="180" as="targetPoint" />
          </mxGeometry>
        </mxCell>
        <mxCell id="gBlH9YvF4Skhn-Lli2iF-67" value="&lt;div style=&quot;&quot;&gt;&lt;font style=&quot;font-family: Arial; color: rgb(0, 0, 0); direction: ltr; letter-spacing: 0px; line-height: 120%; opacity: 1; font-size: 16px;&quot;&gt;ins-comp-settlement&lt;/font&gt;&lt;/div&gt;" style="verticalAlign=middle;align=center;overflow=width;vsdxID=5;fillColor=#fff2bf;gradientColor=none;shape=stencil(vVNBDsIgEHwNRwxCjHqu+g9iaUtEaBa09fdSwdpi9dBDb8vOwOwsGcQyW/FaIEqsA3MRjcxdhdgBUSp1JUA6XyF2RCwrDIgSzE3n4VzzjtlVV3PvXmjDPdLdoOQRTrvtavNqnAKXw9mDELkBIhDJaxrJZIy/YRLfbjFvpcVgHHfS6JGu4lAK7GVwoXg5gmwjRP3VjoMpqQcm9tPKs0z0Y6crWcBHqt0PN8tJspXFfmNKdpaBH8tYwML/VPjiE6dCKhXSOMTT+PlWiC47PgE=);strokeColor=none;spacingTop=-3;spacingBottom=-3;spacingLeft=-3;spacingRight=-3;points=[];labelBackgroundColor=none;rounded=0;html=1;whiteSpace=wrap;fontFamily=Helvetica;fontSize=12;fontColor=default;" vertex="1" parent="gBlH9YvF4Skhn-Lli2iF-34">
          <mxGeometry x="230" y="210" width="150" height="40" as="geometry" />
        </mxCell>
        <mxCell id="gBlH9YvF4Skhn-Lli2iF-69" style="edgeStyle=orthogonalEdgeStyle;rounded=0;orthogonalLoop=1;jettySize=auto;html=1;entryX=0;entryY=0.333;entryDx=0;entryDy=0;entryPerimeter=0;exitX=0;exitY=0.5;exitDx=0;exitDy=0;exitPerimeter=0;" edge="1" parent="gBlH9YvF4Skhn-Lli2iF-34" source="gBlH9YvF4Skhn-Lli2iF-63" target="gBlH9YvF4Skhn-Lli2iF-65">
          <mxGeometry relative="1" as="geometry">
            <Array as="points">
              <mxPoint x="60" y="75" />
              <mxPoint x="60" y="230" />
            </Array>
          </mxGeometry>
        </mxCell>
        <mxCell id="gBlH9YvF4Skhn-Lli2iF-71" style="edgeStyle=orthogonalEdgeStyle;rounded=0;orthogonalLoop=1;jettySize=auto;html=1;entryX=0.422;entryY=0;entryDx=0;entryDy=0;entryPerimeter=0;" edge="1" parent="gBlH9YvF4Skhn-Lli2iF-34" target="gBlH9YvF4Skhn-Lli2iF-64">
          <mxGeometry relative="1" as="geometry">
            <mxPoint x="131" y="100" as="sourcePoint" />
            <Array as="points">
              <mxPoint x="130" y="101" />
              <mxPoint x="130" y="128" />
              <mxPoint x="131" y="128" />
            </Array>
          </mxGeometry>
        </mxCell>
        <mxCell id="gBlH9YvF4Skhn-Lli2iF-73" style="edgeStyle=orthogonalEdgeStyle;rounded=0;orthogonalLoop=1;jettySize=auto;html=1;entryX=0.433;entryY=0.875;entryDx=0;entryDy=0;entryPerimeter=0;" edge="1" parent="gBlH9YvF4Skhn-Lli2iF-34" source="gBlH9YvF4Skhn-Lli2iF-67" target="gBlH9YvF4Skhn-Lli2iF-66">
          <mxGeometry relative="1" as="geometry" />
        </mxCell>
        <mxCell id="gBlH9YvF4Skhn-Lli2iF-75" value="REST" style="text;html=1;align=center;verticalAlign=middle;whiteSpace=wrap;rounded=0;fontFamily=Helvetica;fontSize=12;fontColor=default;" vertex="1" parent="gBlH9YvF4Skhn-Lli2iF-34">
          <mxGeometry x="130" y="110" width="40" height="20" as="geometry" />
        </mxCell>
        <mxCell id="gBlH9YvF4Skhn-Lli2iF-76" value="REST" style="text;html=1;align=center;verticalAlign=middle;whiteSpace=wrap;rounded=0;fontFamily=Helvetica;fontSize=12;fontColor=default;" vertex="1" parent="gBlH9YvF4Skhn-Lli2iF-34">
          <mxGeometry x="20" y="100" width="40" height="20" as="geometry" />
        </mxCell>
        <mxCell id="gBlH9YvF4Skhn-Lli2iF-77" value="REST" style="text;html=1;align=center;verticalAlign=middle;whiteSpace=wrap;rounded=0;fontFamily=Helvetica;fontSize=12;fontColor=default;" vertex="1" parent="gBlH9YvF4Skhn-Lli2iF-34">
          <mxGeometry x="200" y="135" width="40" height="20" as="geometry" />
        </mxCell>
        <mxCell id="gBlH9YvF4Skhn-Lli2iF-80" value="REST" style="text;html=1;align=center;verticalAlign=middle;whiteSpace=wrap;rounded=0;fontFamily=Helvetica;fontSize=12;fontColor=default;" vertex="1" parent="gBlH9YvF4Skhn-Lli2iF-34">
          <mxGeometry x="310" y="190" width="40" height="20" as="geometry" />
        </mxCell>
        <mxCell id="gBlH9YvF4Skhn-Lli2iF-82" value="REST" style="text;html=1;align=center;verticalAlign=middle;whiteSpace=wrap;rounded=0;fontFamily=Helvetica;fontSize=12;fontColor=default;" vertex="1" parent="gBlH9YvF4Skhn-Lli2iF-34">
          <mxGeometry x="160" y="190" width="40" height="20" as="geometry" />
        </mxCell>
        <mxCell id="gBlH9YvF4Skhn-Lli2iF-208" value="Worker nodes" style="text;html=1;align=center;verticalAlign=middle;whiteSpace=wrap;rounded=0;" vertex="1" parent="gBlH9YvF4Skhn-Lli2iF-34">
          <mxGeometry x="375" y="60" width="60" height="30" as="geometry" />
        </mxCell>
        <mxCell id="gBlH9YvF4Skhn-Lli2iF-190" style="vsdxID=5;fillColor=none;gradientColor=none;shape=stencil(vVPLEoIgFP0aljgEVuPa6j+YRGUica6U9vdhUKk4LWzG3X0cOPdcOIilTclrgShpDOiLaGVmSsQOiFJZlQKksRFiR8TSXIMoQN+qzOU175F9dNX3/obOnSP9CUoeLktIFL8KJ4flcLZN8NhtRJiDwxsf7VwhQHjAhniCDvNONhi04UbqakSuOBQCWy6cK16MWk0rRB2U/XRKVgMlSRwl+1nyhWI+s0+Xs4KYgNvPtlBKuJvVniX4En+9yfxWVpDx2yc2+Bosl0o5fw77U0PakjMzOz4B);strokeColor=#ff5958;spacingTop=-3;spacingBottom=-3;spacingLeft=-3;spacingRight=-3;points=[];labelBackgroundColor=none;rounded=0;html=1;whiteSpace=wrap;" vertex="1" parent="gBlH9YvF4Skhn-Lli2iF-34">
          <mxGeometry x="15" y="38.25" width="430" height="233.5" as="geometry" />
        </mxCell>
        <mxCell id="gBlH9YvF4Skhn-Lli2iF-47" style="vsdxID=5;fillColor=none;gradientColor=none;strokeColor=none;spacingTop=-3;spacingBottom=-3;spacingLeft=-3;spacingRight=-3;points=[];labelBackgroundColor=none;rounded=0;html=1;whiteSpace=wrap;" vertex="1" parent="1">
          <mxGeometry x="800" y="335" width="540" height="295" as="geometry" />
        </mxCell>
        <mxCell id="gBlH9YvF4Skhn-Lli2iF-48" style="vsdxID=6;fillColor=none;gradientColor=none;shape=stencil(vVNdD4IgFP01POIQms1nq//BEpVF4q6U9u/DoFJxPdjm2/04cO65cBDL2oo3AlHSGtAX0cncVIgdEKWyrgRIYyPEjohlhQZRgr7VucsbPiCH6Krvww29O0eGE5Q8XJaSaPcqnByWw9k2wWNZRFMHhzc+SlwhQHhATDxBj3kvWwzacCN1PSFXHEqBLRcuFC8nrbYTognKfjol65GSNIn28SL5SjGf2efL2UBMwO1nWykl3M1mzxJ8ib/eZHkrG8j47RMbfA1WSKWcP8f9uSFtyZmZHZ8=);strokeColor=#5282ff;spacingTop=-3;spacingBottom=-3;spacingLeft=-3;spacingRight=-3;points=[];labelBackgroundColor=none;rounded=0;html=1;whiteSpace=wrap;" vertex="1" parent="gBlH9YvF4Skhn-Lli2iF-47">
          <mxGeometry width="470" height="295" as="geometry" />
        </mxCell>
        <mxCell id="gBlH9YvF4Skhn-Lli2iF-49" value="&lt;div style=&quot;&quot;&gt;&lt;font style=&quot;font-family: Arial; color: rgb(0, 0, 0); direction: ltr; letter-spacing: 0px; line-height: 120%; opacity: 1; font-size: 17px;&quot;&gt;Kubernetes cluster 3&lt;/font&gt;&lt;/div&gt;" style="verticalAlign=middle;align=center;overflow=width;vsdxID=7;fillColor=none;gradientColor=none;shape=stencil(nZBLDoAgDERP0z3SIyjew0SURgSD+Lu9kMZoXLhwN9O+tukAlrNpJg1SzDH4QW/URgNYgZTkjA4UkwJUgGXng+6DX1zLfmoymdXo17xh5zmRJ6Q42BWCfc2oJfdAr+Yv+AP9Cb7OJ3H/2JG1HNGz/84klThPVCc=);strokeColor=none;points=[];labelBackgroundColor=none;rounded=0;html=1;whiteSpace=wrap;" vertex="1" parent="gBlH9YvF4Skhn-Lli2iF-47">
          <mxGeometry x="-20.76923076923077" y="-45.002884615384616" width="235.16129032258064" height="131.76666666666668" as="geometry" />
        </mxCell>
        <mxCell id="gBlH9YvF4Skhn-Lli2iF-50" value="" style="shape=image;verticalLabelPosition=bottom;verticalAlign=top;imageAspect=0;aspect=fixed;image=data:image/svg+xml,PHN2ZyB4bWxucz0iaHR0cDovL3d3dy53My5vcmcvMjAwMC9zdmciIGZpbGw9Im5vbmUiIHZpZXdCb3g9IjAgMCAzMiAzMiIgaGVpZ2h0PSIzMiIgd2lkdGg9IjMyIj4mI3hhOzxyZWN0IGZpbGw9IiM1MjgyRkYiIHJ4PSIxNiIgaGVpZ2h0PSIzMiIgd2lkdGg9IjMyIi8+JiN4YTs8cGF0aCBmaWxsPSJ3aGl0ZSIgZD0iTTExLjM0MTMgMjEuNjAwMUw4LjIyNDE4IDE2LjI0OTVDOC4wODEyNiAxNi4wMDgxIDguMDAzOTkgMTUuNzMzIDguMDAwMTUgMTUuNDUxOUM3Ljk5NjMxIDE1LjE3MDggOC4wNjYwNSAxNC44OTM3IDguMjAyMzMgMTQuNjQ4NEwxMS4xNTU1IDkuNDI4OTVDMTEuMjA0NCA5LjM0NzAyIDExLjI3MzggOS4yNzk0NyAxMS4zNTY3IDkuMjMzMDZDMTEuNDM5NyA5LjE4NjY1IDExLjUzMzMgOS4xNjMwMyAxMS42MjgyIDkuMTY0NTVDMTEuNzIzIDkuMTY2MDcgMTEuODE1OSA5LjE5MjY4IDExLjg5NzMgOS4yNDE3MkMxMS45Nzg4IDkuMjkwNzYgMTIuMDQ2IDkuMzYwNTEgMTIuMDkyMiA5LjQ0Mzk2TDE1LjIwNzMgMTQuNzc3NUMxNS4zNTA3IDE1LjAxODcgMTUuNDI4NSAxNS4yOTM2IDE1LjQzMjkgMTUuNTc0N0MxNS40MzcyIDE1Ljg1NTggMTUuMzY4IDE2LjEzMyAxNS4yMzIyIDE2LjM3ODZMMTIuMjc5IDIxLjYxNjFDMTIuMjMwMSAyMS42OTgyIDEyLjE2MDYgMjEuNzY1OSAxMi4wNzc1IDIxLjgxMjRDMTEuOTk0NCAyMS44NTg5IDExLjkwMDYgMjEuODgyNSAxMS44MDU1IDIxLjg4MDlDMTEuNzEwNSAyMS44NzkyIDExLjYxNzUgMjEuODUyNCAxMS41MzYxIDIxLjgwMzFDMTEuNDU0NiAyMS43NTM5IDExLjM4NzQgMjEuNjgzOCAxMS4zNDEzIDIxLjYwMDFaTTEzLjU1NzQgOEwxOS40NjQ4IDguMDEwMDFDMTkuNzQ3IDguMDEwMzMgMjAuMDI0MiA4LjA4NTYxIDIwLjI2ODQgOC4yMjgyNkMyMC41MTI1IDguMzcwOTIgMjAuNzE1IDguNTc1OSAyMC44NTU0IDguODIyNTVMMjMuOSAxNC4xNjAxQzIzLjk0OCAxNC4yNDUxIDIzLjk3MzIgMTQuMzQxMiAyMy45NzMzIDE0LjQzOUMyMy45NzM0IDE0LjUzNjggMjMuOTQ4MyAxNC42MzMgMjMuOTAwNCAxNC43MTgxQzIzLjg1MjYgMTQuODAzMiAyMy43ODM3IDE0Ljg3NDMgMjMuNzAwNCAxNC45MjQ1QzIzLjYxNzEgMTQuOTc0OCAyMy41MjIzIDE1LjAwMjQgMjMuNDI1MiAxNS4wMDQ3SDE3LjUzNTdDMTcuMjUxOCAxNS4wMDA5IDE2Ljk3MzggMTQuOTIyMiAxNi43Mjk1IDE0Ljc3NjVDMTYuNDg1MSAxNC42MzA3IDE2LjI4MjkgMTQuNDIzMSAxNi4xNDMxIDE0LjE3NDFMMTMuMDgyNiA4LjgyNjU1QzEzLjAzNDYgOC43NDI2MSAxMy4wMDk0IDguNjQ3NDIgMTMuMDA5NSA4LjU1MDU1QzEzLjAwOTcgOC40NTM2OSAxMy4wMzUyIDguMzU4NTcgMTMuMDgzNCA4LjI3NDc3QzEzLjEzMTYgOC4xOTA5NyAxMy4yMDA5IDguMTIxNDYgMTMuMjg0MyA4LjA3MzIyQzEzLjM2NzcgOC4wMjQ5OSAxMy40NjIyIDcuOTk5NzMgMTMuNTU4NCA4SDEzLjU1NzRaTTEzLjU1OTQgMjIuOTk2TDE5LjQ4MDcgMjNDMTkuNzYzNiAyMi45OTk5IDIwLjA0MTUgMjIuOTI0NiAyMC4yODY0IDIyLjc4MThDMjAuNTMxMiAyMi42Mzg5IDIwLjczNDQgMjIuNDMzNiAyMC44NzUzIDIyLjE4NjVMMjMuOTI2OCAxNi44MzU5QzIzLjk3NDggMTYuNzUxOCAyNCAxNi42NTY0IDI0IDE2LjU1OTRDMjQgMTYuNDYyNCAyMy45NzQ2IDE2LjM2NzEgMjMuOTI2NiAxNi4yODNDMjMuODc4NSAxNi4xOTkgMjMuODA5NCAxNi4xMjkxIDIzLjcyNjEgMTYuMDgwM0MyMy42NDI4IDE2LjAzMTYgMjMuNTQ4MyAxNi4wMDU3IDIzLjQ1MiAxNi4wMDUzSDE3LjI1NTZDMTcuMDA2MiAxNi4wMDcgMTYuNzYzMSAxNi4wODQyIDE2LjU1OCAxNi4yMjdDMTYuMzUyOCAxNi4zNjk4IDE2LjE5NTEgMTYuNTcxNSAxNi4xMDUzIDE2LjgwNTlMMTMuMDgzNiAyMi4xNjc0QzEzLjAzNTQgMjIuMjUxNSAxMy4wMTAxIDIyLjM0NjggMTMuMDEwMSAyMi40NDM5QzEzLjAxMDIgMjIuNTQwOSAxMy4wMzU2IDIyLjYzNjIgMTMuMDgzOCAyMi43MjAyQzEzLjEzMjEgMjIuODA0MiAxMy4yMDE0IDIyLjg3MzkgMTMuMjg0OSAyMi45MjI0QzEzLjM2ODQgMjIuOTcwOCAxMy40NjMxIDIyLjk5NjIgMTMuNTU5NCAyMi45OTZaIi8+JiN4YTs8L3N2Zz4=;" vertex="1" parent="gBlH9YvF4Skhn-Lli2iF-47">
          <mxGeometry x="184.49893765508682" y="2.140448717948715" width="37.478908188585606" height="37.478908188585606" as="geometry" />
        </mxCell>
        <mxCell id="gBlH9YvF4Skhn-Lli2iF-59" value="Active failover" style="text;html=1;align=center;verticalAlign=middle;whiteSpace=wrap;rounded=0;" vertex="1" parent="gBlH9YvF4Skhn-Lli2iF-47">
          <mxGeometry x="339.9969602977668" y="0.22666666666666657" width="156.7741935483871" height="41.3" as="geometry" />
        </mxCell>
        <mxCell id="gBlH9YvF4Skhn-Lli2iF-102" value="&lt;div style=&quot;&quot;&gt;&lt;font style=&quot;font-family: Arial; color: rgb(0, 0, 0); direction: ltr; letter-spacing: 0px; line-height: 120%; opacity: 1; font-size: 16px;&quot;&gt;InsureTech Web (frontend)&lt;/font&gt;&lt;/div&gt;" style="verticalAlign=middle;align=center;overflow=width;vsdxID=5;fillColor=#fff2bf;gradientColor=none;shape=stencil(vVNBDsIgEHwNRwxCjHqu+g9iaUtEaBa09fdSwdpi9dBDb8vOwOwsGcQyW/FaIEqsA3MRjcxdhdgBUSp1JUA6XyF2RCwrDIgSzE3n4VzzjtlVV3PvXmjDPdLdoOQRTrvtavNqnAKXw9mDELkBIhDJaxrJZIy/YRLfbjFvpcVgHHfS6JGu4lAK7GVwoXg5gmwjRP3VjoMpqQcm9tPKs0z0Y6crWcBHqt0PN8tJspXFfmNKdpaBH8tYwML/VPjiE6dCKhXSOMTT+PlWiC47PgE=);strokeColor=none;spacingTop=-3;spacingBottom=-3;spacingLeft=-3;spacingRight=-3;points=[];labelBackgroundColor=none;rounded=0;html=1;whiteSpace=wrap;fontFamily=Helvetica;fontSize=12;fontColor=default;" vertex="1" parent="gBlH9YvF4Skhn-Lli2iF-47">
          <mxGeometry x="97" y="65" width="280" height="50" as="geometry" />
        </mxCell>
        <mxCell id="gBlH9YvF4Skhn-Lli2iF-103" value="&lt;div style=&quot;&quot;&gt;&lt;font style=&quot;font-family: Arial; color: rgb(0, 0, 0); direction: ltr; letter-spacing: 0px; line-height: 120%; opacity: 1; font-size: 16px;&quot;&gt;core-app&lt;/font&gt;&lt;/div&gt;" style="verticalAlign=middle;align=center;overflow=width;vsdxID=5;fillColor=#fff2bf;gradientColor=none;shape=stencil(vVNBDsIgEHwNRwxCjHqu+g9iaUtEaBa09fdSwdpi9dBDb8vOwOwsGcQyW/FaIEqsA3MRjcxdhdgBUSp1JUA6XyF2RCwrDIgSzE3n4VzzjtlVV3PvXmjDPdLdoOQRTrvtavNqnAKXw9mDELkBIhDJaxrJZIy/YRLfbjFvpcVgHHfS6JGu4lAK7GVwoXg5gmwjRP3VjoMpqQcm9tPKs0z0Y6crWcBHqt0PN8tJspXFfmNKdpaBH8tYwML/VPjiE6dCKhXSOMTT+PlWiC47PgE=);strokeColor=none;spacingTop=-3;spacingBottom=-3;spacingLeft=-3;spacingRight=-3;points=[];labelBackgroundColor=none;rounded=0;html=1;whiteSpace=wrap;fontFamily=Helvetica;fontSize=12;fontColor=default;" vertex="1" parent="gBlH9YvF4Skhn-Lli2iF-47">
          <mxGeometry x="94.5" y="150" width="101" height="30" as="geometry" />
        </mxCell>
        <mxCell id="gBlH9YvF4Skhn-Lli2iF-104" value="&lt;div style=&quot;&quot;&gt;&lt;font style=&quot;font-family: Arial; color: rgb(0, 0, 0); direction: ltr; letter-spacing: 0px; line-height: 120%; opacity: 1; font-size: 16px;&quot;&gt;client-info&lt;/font&gt;&lt;/div&gt;" style="verticalAlign=middle;align=center;overflow=width;vsdxID=5;fillColor=#fff2bf;gradientColor=none;shape=stencil(vVNBDsIgEHwNRwxCjHqu+g9iaUtEaBa09fdSwdpi9dBDb8vOwOwsGcQyW/FaIEqsA3MRjcxdhdgBUSp1JUA6XyF2RCwrDIgSzE3n4VzzjtlVV3PvXmjDPdLdoOQRTrvtavNqnAKXw9mDELkBIhDJaxrJZIy/YRLfbjFvpcVgHHfS6JGu4lAK7GVwoXg5gmwjRP3VjoMpqQcm9tPKs0z0Y6crWcBHqt0PN8tJspXFfmNKdpaBH8tYwML/VPjiE6dCKhXSOMTT+PlWiC47PgE=);strokeColor=none;spacingTop=-3;spacingBottom=-3;spacingLeft=-3;spacingRight=-3;points=[];labelBackgroundColor=none;rounded=0;html=1;whiteSpace=wrap;fontFamily=Helvetica;fontSize=12;fontColor=default;" vertex="1" parent="gBlH9YvF4Skhn-Lli2iF-47">
          <mxGeometry x="94.5" y="225" width="90" height="30" as="geometry" />
        </mxCell>
        <mxCell id="gBlH9YvF4Skhn-Lli2iF-105" value="&lt;div style=&quot;&quot;&gt;&lt;font style=&quot;font-family: Arial; color: rgb(0, 0, 0); direction: ltr; letter-spacing: 0px; line-height: 120%; opacity: 1; font-size: 16px;&quot;&gt;ins-product-aggregator&lt;/font&gt;&lt;/div&gt;" style="verticalAlign=middle;align=center;overflow=width;vsdxID=5;fillColor=#fff2bf;gradientColor=none;shape=stencil(vVNBDsIgEHwNRwxCjHqu+g9iaUtEaBa09fdSwdpi9dBDb8vOwOwsGcQyW/FaIEqsA3MRjcxdhdgBUSp1JUA6XyF2RCwrDIgSzE3n4VzzjtlVV3PvXmjDPdLdoOQRTrvtavNqnAKXw9mDELkBIhDJaxrJZIy/YRLfbjFvpcVgHHfS6JGu4lAK7GVwoXg5gmwjRP3VjoMpqQcm9tPKs0z0Y6crWcBHqt0PN8tJspXFfmNKdpaBH8tYwML/VPjiE6dCKhXSOMTT+PlWiC47PgE=);strokeColor=none;spacingTop=-3;spacingBottom=-3;spacingLeft=-3;spacingRight=-3;points=[];labelBackgroundColor=none;rounded=0;html=1;whiteSpace=wrap;fontFamily=Helvetica;fontSize=12;fontColor=default;" vertex="1" parent="gBlH9YvF4Skhn-Lli2iF-47">
          <mxGeometry x="241.5" y="140" width="150" height="40" as="geometry" />
        </mxCell>
        <mxCell id="gBlH9YvF4Skhn-Lli2iF-106" value="&lt;div style=&quot;&quot;&gt;&lt;font style=&quot;font-family: Arial; color: rgb(0, 0, 0); direction: ltr; letter-spacing: 0px; line-height: 120%; opacity: 1; font-size: 16px;&quot;&gt;ins-comp-settlement&lt;/font&gt;&lt;/div&gt;" style="verticalAlign=middle;align=center;overflow=width;vsdxID=5;fillColor=#fff2bf;gradientColor=none;shape=stencil(vVNBDsIgEHwNRwxCjHqu+g9iaUtEaBa09fdSwdpi9dBDb8vOwOwsGcQyW/FaIEqsA3MRjcxdhdgBUSp1JUA6XyF2RCwrDIgSzE3n4VzzjtlVV3PvXmjDPdLdoOQRTrvtavNqnAKXw9mDELkBIhDJaxrJZIy/YRLfbjFvpcVgHHfS6JGu4lAK7GVwoXg5gmwjRP3VjoMpqQcm9tPKs0z0Y6crWcBHqt0PN8tJspXFfmNKdpaBH8tYwML/VPjiE6dCKhXSOMTT+PlWiC47PgE=);strokeColor=none;spacingTop=-3;spacingBottom=-3;spacingLeft=-3;spacingRight=-3;points=[];labelBackgroundColor=none;rounded=0;html=1;whiteSpace=wrap;fontFamily=Helvetica;fontSize=12;fontColor=default;" vertex="1" parent="gBlH9YvF4Skhn-Lli2iF-47">
          <mxGeometry x="237" y="225" width="150" height="40" as="geometry" />
        </mxCell>
        <mxCell id="gBlH9YvF4Skhn-Lli2iF-107" style="edgeStyle=orthogonalEdgeStyle;rounded=0;orthogonalLoop=1;jettySize=auto;html=1;entryX=0;entryY=0.333;entryDx=0;entryDy=0;entryPerimeter=0;exitX=0;exitY=0.5;exitDx=0;exitDy=0;exitPerimeter=0;" edge="1" parent="gBlH9YvF4Skhn-Lli2iF-47" source="gBlH9YvF4Skhn-Lli2iF-102" target="gBlH9YvF4Skhn-Lli2iF-104">
          <mxGeometry relative="1" as="geometry">
            <Array as="points">
              <mxPoint x="67.5" y="90.5" />
              <mxPoint x="67.5" y="197.5" />
              <mxPoint x="94.5" y="197.5" />
            </Array>
          </mxGeometry>
        </mxCell>
        <mxCell id="gBlH9YvF4Skhn-Lli2iF-108" value="REST" style="text;html=1;align=center;verticalAlign=middle;whiteSpace=wrap;rounded=0;fontFamily=Helvetica;fontSize=12;fontColor=default;" vertex="1" parent="gBlH9YvF4Skhn-Lli2iF-47">
          <mxGeometry x="137" y="125" width="40" height="20" as="geometry" />
        </mxCell>
        <mxCell id="gBlH9YvF4Skhn-Lli2iF-109" value="REST" style="text;html=1;align=center;verticalAlign=middle;whiteSpace=wrap;rounded=0;fontFamily=Helvetica;fontSize=12;fontColor=default;" vertex="1" parent="gBlH9YvF4Skhn-Lli2iF-47">
          <mxGeometry x="27" y="115" width="40" height="20" as="geometry" />
        </mxCell>
        <mxCell id="gBlH9YvF4Skhn-Lli2iF-110" value="REST" style="text;html=1;align=center;verticalAlign=middle;whiteSpace=wrap;rounded=0;fontFamily=Helvetica;fontSize=12;fontColor=default;" vertex="1" parent="gBlH9YvF4Skhn-Lli2iF-47">
          <mxGeometry x="201.5" y="140" width="40" height="20" as="geometry" />
        </mxCell>
        <mxCell id="gBlH9YvF4Skhn-Lli2iF-111" value="REST" style="text;html=1;align=center;verticalAlign=middle;whiteSpace=wrap;rounded=0;fontFamily=Helvetica;fontSize=12;fontColor=default;" vertex="1" parent="gBlH9YvF4Skhn-Lli2iF-47">
          <mxGeometry x="317" y="205" width="40" height="20" as="geometry" />
        </mxCell>
        <mxCell id="gBlH9YvF4Skhn-Lli2iF-112" value="REST" style="text;html=1;align=center;verticalAlign=middle;whiteSpace=wrap;rounded=0;fontFamily=Helvetica;fontSize=12;fontColor=default;" vertex="1" parent="gBlH9YvF4Skhn-Lli2iF-47">
          <mxGeometry x="199.5" y="205" width="40" height="20" as="geometry" />
        </mxCell>
        <mxCell id="gBlH9YvF4Skhn-Lli2iF-114" style="edgeStyle=orthogonalEdgeStyle;rounded=0;orthogonalLoop=1;jettySize=auto;html=1;exitX=0.014;exitY=0.486;exitDx=0;exitDy=0;exitPerimeter=0;" edge="1" parent="gBlH9YvF4Skhn-Lli2iF-47" source="gBlH9YvF4Skhn-Lli2iF-106">
          <mxGeometry relative="1" as="geometry">
            <mxPoint x="195.5" y="180" as="targetPoint" />
            <mxPoint x="225.5" y="230.5" as="sourcePoint" />
          </mxGeometry>
        </mxCell>
        <mxCell id="gBlH9YvF4Skhn-Lli2iF-117" style="edgeStyle=orthogonalEdgeStyle;rounded=0;orthogonalLoop=1;jettySize=auto;html=1;entryX=0.3;entryY=0.121;entryDx=0;entryDy=0;entryPerimeter=0;exitX=0.12;exitY=0.973;exitDx=0;exitDy=0;exitPerimeter=0;" edge="1" parent="gBlH9YvF4Skhn-Lli2iF-47" source="gBlH9YvF4Skhn-Lli2iF-102" target="gBlH9YvF4Skhn-Lli2iF-103">
          <mxGeometry relative="1" as="geometry" />
        </mxCell>
        <mxCell id="gBlH9YvF4Skhn-Lli2iF-118" style="edgeStyle=orthogonalEdgeStyle;rounded=0;orthogonalLoop=1;jettySize=auto;html=1;entryX=0.013;entryY=0.626;entryDx=0;entryDy=0;entryPerimeter=0;" edge="1" parent="gBlH9YvF4Skhn-Lli2iF-47" source="gBlH9YvF4Skhn-Lli2iF-103" target="gBlH9YvF4Skhn-Lli2iF-105">
          <mxGeometry relative="1" as="geometry" />
        </mxCell>
        <mxCell id="gBlH9YvF4Skhn-Lli2iF-119" style="edgeStyle=orthogonalEdgeStyle;rounded=0;orthogonalLoop=1;jettySize=auto;html=1;entryX=0.471;entryY=1.039;entryDx=0;entryDy=0;entryPerimeter=0;" edge="1" parent="gBlH9YvF4Skhn-Lli2iF-47" source="gBlH9YvF4Skhn-Lli2iF-106" target="gBlH9YvF4Skhn-Lli2iF-105">
          <mxGeometry relative="1" as="geometry" />
        </mxCell>
        <mxCell id="gBlH9YvF4Skhn-Lli2iF-207" value="Worker nodes" style="text;html=1;align=center;verticalAlign=middle;whiteSpace=wrap;rounded=0;" vertex="1" parent="gBlH9YvF4Skhn-Lli2iF-47">
          <mxGeometry x="387" y="65" width="60" height="30" as="geometry" />
        </mxCell>
        <mxCell id="gBlH9YvF4Skhn-Lli2iF-205" style="vsdxID=5;fillColor=none;gradientColor=none;shape=stencil(vVPLEoIgFP0aljgEVuPa6j+YRGUica6U9vdhUKk4LWzG3X0cOPdcOIilTclrgShpDOiLaGVmSsQOiFJZlQKksRFiR8TSXIMoQN+qzOU175F9dNX3/obOnSP9CUoeLktIFL8KJ4flcLZN8NhtRJiDwxsf7VwhQHjAhniCDvNONhi04UbqakSuOBQCWy6cK16MWk0rRB2U/XRKVgMlSRwl+1nyhWI+s0+Xs4KYgNvPtlBKuJvVniX4En+9yfxWVpDx2yc2+Bosl0o5fw77U0PakjMzOz4B);strokeColor=#ff5958;spacingTop=-3;spacingBottom=-3;spacingLeft=-3;spacingRight=-3;points=[];labelBackgroundColor=none;rounded=0;html=1;whiteSpace=wrap;" vertex="1" parent="gBlH9YvF4Skhn-Lli2iF-47">
          <mxGeometry x="17" y="43.25" width="430" height="233.5" as="geometry" />
        </mxCell>
        <mxCell id="gBlH9YvF4Skhn-Lli2iF-43" style="vsdxID=5;fillColor=none;gradientColor=none;strokeColor=none;spacingTop=-3;spacingBottom=-3;spacingLeft=-3;spacingRight=-3;points=[];labelBackgroundColor=none;rounded=0;html=1;whiteSpace=wrap;" vertex="1" parent="1">
          <mxGeometry x="200" y="332.5" width="570" height="290" as="geometry" />
        </mxCell>
        <mxCell id="gBlH9YvF4Skhn-Lli2iF-44" style="vsdxID=6;fillColor=none;gradientColor=none;shape=stencil(vVNdD4IgFP01POIQms1nq//BEpVF4q6U9u/DoFJxPdjm2/04cO65cBDL2oo3AlHSGtAX0cncVIgdEKWyrgRIYyPEjohlhQZRgr7VucsbPiCH6Krvww29O0eGE5Q8XJaSaPcqnByWw9k2wWNZRFMHhzc+SlwhQHhATDxBj3kvWwzacCN1PSFXHEqBLRcuFC8nrbYTognKfjol65GSNIn28SL5SjGf2efL2UBMwO1nWykl3M1mzxJ8ib/eZHkrG8j47RMbfA1WSKWcP8f9uSFtyZmZHZ8=);strokeColor=#5282ff;spacingTop=-3;spacingBottom=-3;spacingLeft=-3;spacingRight=-3;points=[];labelBackgroundColor=none;rounded=0;html=1;whiteSpace=wrap;" vertex="1" parent="gBlH9YvF4Skhn-Lli2iF-43">
          <mxGeometry width="490" height="290" as="geometry" />
        </mxCell>
        <mxCell id="gBlH9YvF4Skhn-Lli2iF-45" value="&lt;div style=&quot;&quot;&gt;&lt;font style=&quot;font-family: Arial; color: rgb(0, 0, 0); direction: ltr; letter-spacing: 0px; line-height: 120%; opacity: 1; font-size: 17px;&quot;&gt;Kubernetes cluster 1&lt;/font&gt;&lt;/div&gt;" style="verticalAlign=middle;align=center;overflow=width;vsdxID=7;fillColor=none;gradientColor=none;shape=stencil(nZBLDoAgDERP0z3SIyjew0SURgSD+Lu9kMZoXLhwN9O+tukAlrNpJg1SzDH4QW/URgNYgZTkjA4UkwJUgGXng+6DX1zLfmoymdXo17xh5zmRJ6Q42BWCfc2oJfdAr+Yv+AP9Cb7OJ3H/2JG1HNGz/84klThPVCc=);strokeColor=none;points=[];labelBackgroundColor=none;rounded=0;html=1;whiteSpace=wrap;" vertex="1" parent="gBlH9YvF4Skhn-Lli2iF-43">
          <mxGeometry x="-30" y="-20.03" width="248.2258064516129" height="92.52380952380952" as="geometry" />
        </mxCell>
        <mxCell id="gBlH9YvF4Skhn-Lli2iF-46" value="" style="shape=image;verticalLabelPosition=bottom;verticalAlign=top;imageAspect=0;aspect=fixed;image=data:image/svg+xml,PHN2ZyB4bWxucz0iaHR0cDovL3d3dy53My5vcmcvMjAwMC9zdmciIGZpbGw9Im5vbmUiIHZpZXdCb3g9IjAgMCAzMiAzMiIgaGVpZ2h0PSIzMiIgd2lkdGg9IjMyIj4mI3hhOzxyZWN0IGZpbGw9IiM1MjgyRkYiIHJ4PSIxNiIgaGVpZ2h0PSIzMiIgd2lkdGg9IjMyIi8+JiN4YTs8cGF0aCBmaWxsPSJ3aGl0ZSIgZD0iTTExLjM0MTMgMjEuNjAwMUw4LjIyNDE4IDE2LjI0OTVDOC4wODEyNiAxNi4wMDgxIDguMDAzOTkgMTUuNzMzIDguMDAwMTUgMTUuNDUxOUM3Ljk5NjMxIDE1LjE3MDggOC4wNjYwNSAxNC44OTM3IDguMjAyMzMgMTQuNjQ4NEwxMS4xNTU1IDkuNDI4OTVDMTEuMjA0NCA5LjM0NzAyIDExLjI3MzggOS4yNzk0NyAxMS4zNTY3IDkuMjMzMDZDMTEuNDM5NyA5LjE4NjY1IDExLjUzMzMgOS4xNjMwMyAxMS42MjgyIDkuMTY0NTVDMTEuNzIzIDkuMTY2MDcgMTEuODE1OSA5LjE5MjY4IDExLjg5NzMgOS4yNDE3MkMxMS45Nzg4IDkuMjkwNzYgMTIuMDQ2IDkuMzYwNTEgMTIuMDkyMiA5LjQ0Mzk2TDE1LjIwNzMgMTQuNzc3NUMxNS4zNTA3IDE1LjAxODcgMTUuNDI4NSAxNS4yOTM2IDE1LjQzMjkgMTUuNTc0N0MxNS40MzcyIDE1Ljg1NTggMTUuMzY4IDE2LjEzMyAxNS4yMzIyIDE2LjM3ODZMMTIuMjc5IDIxLjYxNjFDMTIuMjMwMSAyMS42OTgyIDEyLjE2MDYgMjEuNzY1OSAxMi4wNzc1IDIxLjgxMjRDMTEuOTk0NCAyMS44NTg5IDExLjkwMDYgMjEuODgyNSAxMS44MDU1IDIxLjg4MDlDMTEuNzEwNSAyMS44NzkyIDExLjYxNzUgMjEuODUyNCAxMS41MzYxIDIxLjgwMzFDMTEuNDU0NiAyMS43NTM5IDExLjM4NzQgMjEuNjgzOCAxMS4zNDEzIDIxLjYwMDFaTTEzLjU1NzQgOEwxOS40NjQ4IDguMDEwMDFDMTkuNzQ3IDguMDEwMzMgMjAuMDI0MiA4LjA4NTYxIDIwLjI2ODQgOC4yMjgyNkMyMC41MTI1IDguMzcwOTIgMjAuNzE1IDguNTc1OSAyMC44NTU0IDguODIyNTVMMjMuOSAxNC4xNjAxQzIzLjk0OCAxNC4yNDUxIDIzLjk3MzIgMTQuMzQxMiAyMy45NzMzIDE0LjQzOUMyMy45NzM0IDE0LjUzNjggMjMuOTQ4MyAxNC42MzMgMjMuOTAwNCAxNC43MTgxQzIzLjg1MjYgMTQuODAzMiAyMy43ODM3IDE0Ljg3NDMgMjMuNzAwNCAxNC45MjQ1QzIzLjYxNzEgMTQuOTc0OCAyMy41MjIzIDE1LjAwMjQgMjMuNDI1MiAxNS4wMDQ3SDE3LjUzNTdDMTcuMjUxOCAxNS4wMDA5IDE2Ljk3MzggMTQuOTIyMiAxNi43Mjk1IDE0Ljc3NjVDMTYuNDg1MSAxNC42MzA3IDE2LjI4MjkgMTQuNDIzMSAxNi4xNDMxIDE0LjE3NDFMMTMuMDgyNiA4LjgyNjU1QzEzLjAzNDYgOC43NDI2MSAxMy4wMDk0IDguNjQ3NDIgMTMuMDA5NSA4LjU1MDU1QzEzLjAwOTcgOC40NTM2OSAxMy4wMzUyIDguMzU4NTcgMTMuMDgzNCA4LjI3NDc3QzEzLjEzMTYgOC4xOTA5NyAxMy4yMDA5IDguMTIxNDYgMTMuMjg0MyA4LjA3MzIyQzEzLjM2NzcgOC4wMjQ5OSAxMy40NjIyIDcuOTk5NzMgMTMuNTU4NCA4SDEzLjU1NzRaTTEzLjU1OTQgMjIuOTk2TDE5LjQ4MDcgMjNDMTkuNzYzNiAyMi45OTk5IDIwLjA0MTUgMjIuOTI0NiAyMC4yODY0IDIyLjc4MThDMjAuNTMxMiAyMi42Mzg5IDIwLjczNDQgMjIuNDMzNiAyMC44NzUzIDIyLjE4NjVMMjMuOTI2OCAxNi44MzU5QzIzLjk3NDggMTYuNzUxOCAyNCAxNi42NTY0IDI0IDE2LjU1OTRDMjQgMTYuNDYyNCAyMy45NzQ2IDE2LjM2NzEgMjMuOTI2NiAxNi4yODNDMjMuODc4NSAxNi4xOTkgMjMuODA5NCAxNi4xMjkxIDIzLjcyNjEgMTYuMDgwM0MyMy42NDI4IDE2LjAzMTYgMjMuNTQ4MyAxNi4wMDU3IDIzLjQ1MiAxNi4wMDUzSDE3LjI1NTZDMTcuMDA2MiAxNi4wMDcgMTYuNzYzMSAxNi4wODQyIDE2LjU1OCAxNi4yMjdDMTYuMzUyOCAxNi4zNjk4IDE2LjE5NTEgMTYuNTcxNSAxNi4xMDUzIDE2LjgwNTlMMTMuMDgzNiAyMi4xNjc0QzEzLjAzNTQgMjIuMjUxNSAxMy4wMTAxIDIyLjM0NjggMTMuMDEwMSAyMi40NDM5QzEzLjAxMDIgMjIuNTQwOSAxMy4wMzU2IDIyLjYzNjIgMTMuMDgzOCAyMi43MjAyQzEzLjEzMjEgMjIuODA0MiAxMy4yMDE0IDIyLjg3MzkgMTMuMjg0OSAyMi45MjI0QzEzLjM2ODQgMjIuOTcwOCAxMy40NjMxIDIyLjk5NjIgMTMuNTU5NCAyMi45OTZaIi8+JiN4YTs8L3N2Zz4=;" vertex="1" parent="gBlH9YvF4Skhn-Lli2iF-43">
          <mxGeometry x="181.04" y="7.630000000000003" width="37.19" height="37.19" as="geometry" />
        </mxCell>
        <mxCell id="gBlH9YvF4Skhn-Lli2iF-58" value="Active failover" style="text;html=1;align=center;verticalAlign=middle;whiteSpace=wrap;rounded=0;" vertex="1" parent="gBlH9YvF4Skhn-Lli2iF-43">
          <mxGeometry x="340.00387096774193" y="11.729523809523807" width="165.48387096774195" height="29" as="geometry" />
        </mxCell>
        <mxCell id="gBlH9YvF4Skhn-Lli2iF-84" value="&lt;div style=&quot;&quot;&gt;&lt;font style=&quot;font-family: Arial; color: rgb(0, 0, 0); direction: ltr; letter-spacing: 0px; line-height: 120%; opacity: 1; font-size: 16px;&quot;&gt;InsureTech Web (frontend)&lt;/font&gt;&lt;/div&gt;" style="verticalAlign=middle;align=center;overflow=width;vsdxID=5;fillColor=#fff2bf;gradientColor=none;shape=stencil(vVNBDsIgEHwNRwxCjHqu+g9iaUtEaBa09fdSwdpi9dBDb8vOwOwsGcQyW/FaIEqsA3MRjcxdhdgBUSp1JUA6XyF2RCwrDIgSzE3n4VzzjtlVV3PvXmjDPdLdoOQRTrvtavNqnAKXw9mDELkBIhDJaxrJZIy/YRLfbjFvpcVgHHfS6JGu4lAK7GVwoXg5gmwjRP3VjoMpqQcm9tPKs0z0Y6crWcBHqt0PN8tJspXFfmNKdpaBH8tYwML/VPjiE6dCKhXSOMTT+PlWiC47PgE=);strokeColor=none;spacingTop=-3;spacingBottom=-3;spacingLeft=-3;spacingRight=-3;points=[];labelBackgroundColor=none;rounded=0;html=1;whiteSpace=wrap;fontFamily=Helvetica;fontSize=12;fontColor=default;" vertex="1" parent="gBlH9YvF4Skhn-Lli2iF-43">
          <mxGeometry x="99" y="57.5" width="280" height="50" as="geometry" />
        </mxCell>
        <mxCell id="gBlH9YvF4Skhn-Lli2iF-85" style="edgeStyle=orthogonalEdgeStyle;rounded=0;orthogonalLoop=1;jettySize=auto;html=1;" edge="1" parent="gBlH9YvF4Skhn-Lli2iF-43" source="gBlH9YvF4Skhn-Lli2iF-86" target="gBlH9YvF4Skhn-Lli2iF-88">
          <mxGeometry relative="1" as="geometry" />
        </mxCell>
        <mxCell id="gBlH9YvF4Skhn-Lli2iF-86" value="&lt;div style=&quot;&quot;&gt;&lt;font style=&quot;font-family: Arial; color: rgb(0, 0, 0); direction: ltr; letter-spacing: 0px; line-height: 120%; opacity: 1; font-size: 16px;&quot;&gt;core-app&lt;/font&gt;&lt;/div&gt;" style="verticalAlign=middle;align=center;overflow=width;vsdxID=5;fillColor=#fff2bf;gradientColor=none;shape=stencil(vVNBDsIgEHwNRwxCjHqu+g9iaUtEaBa09fdSwdpi9dBDb8vOwOwsGcQyW/FaIEqsA3MRjcxdhdgBUSp1JUA6XyF2RCwrDIgSzE3n4VzzjtlVV3PvXmjDPdLdoOQRTrvtavNqnAKXw9mDELkBIhDJaxrJZIy/YRLfbjFvpcVgHHfS6JGu4lAK7GVwoXg5gmwjRP3VjoMpqQcm9tPKs0z0Y6crWcBHqt0PN8tJspXFfmNKdpaBH8tYwML/VPjiE6dCKhXSOMTT+PlWiC47PgE=);strokeColor=none;spacingTop=-3;spacingBottom=-3;spacingLeft=-3;spacingRight=-3;points=[];labelBackgroundColor=none;rounded=0;html=1;whiteSpace=wrap;fontFamily=Helvetica;fontSize=12;fontColor=default;" vertex="1" parent="gBlH9YvF4Skhn-Lli2iF-43">
          <mxGeometry x="89" y="147.5" width="120" height="30" as="geometry" />
        </mxCell>
        <mxCell id="gBlH9YvF4Skhn-Lli2iF-87" value="&lt;div style=&quot;&quot;&gt;&lt;font style=&quot;font-family: Arial; color: rgb(0, 0, 0); direction: ltr; letter-spacing: 0px; line-height: 120%; opacity: 1; font-size: 16px;&quot;&gt;client-info&lt;/font&gt;&lt;/div&gt;" style="verticalAlign=middle;align=center;overflow=width;vsdxID=5;fillColor=#fff2bf;gradientColor=none;shape=stencil(vVNBDsIgEHwNRwxCjHqu+g9iaUtEaBa09fdSwdpi9dBDb8vOwOwsGcQyW/FaIEqsA3MRjcxdhdgBUSp1JUA6XyF2RCwrDIgSzE3n4VzzjtlVV3PvXmjDPdLdoOQRTrvtavNqnAKXw9mDELkBIhDJaxrJZIy/YRLfbjFvpcVgHHfS6JGu4lAK7GVwoXg5gmwjRP3VjoMpqQcm9tPKs0z0Y6crWcBHqt0PN8tJspXFfmNKdpaBH8tYwML/VPjiE6dCKhXSOMTT+PlWiC47PgE=);strokeColor=none;spacingTop=-3;spacingBottom=-3;spacingLeft=-3;spacingRight=-3;points=[];labelBackgroundColor=none;rounded=0;html=1;whiteSpace=wrap;fontFamily=Helvetica;fontSize=12;fontColor=default;" vertex="1" parent="gBlH9YvF4Skhn-Lli2iF-43">
          <mxGeometry x="79" y="227.5" width="120" height="30" as="geometry" />
        </mxCell>
        <mxCell id="gBlH9YvF4Skhn-Lli2iF-88" value="&lt;div style=&quot;&quot;&gt;&lt;font style=&quot;font-family: Arial; color: rgb(0, 0, 0); direction: ltr; letter-spacing: 0px; line-height: 120%; opacity: 1; font-size: 16px;&quot;&gt;ins-product-aggregator&lt;/font&gt;&lt;/div&gt;" style="verticalAlign=middle;align=center;overflow=width;vsdxID=5;fillColor=#fff2bf;gradientColor=none;shape=stencil(vVNBDsIgEHwNRwxCjHqu+g9iaUtEaBa09fdSwdpi9dBDb8vOwOwsGcQyW/FaIEqsA3MRjcxdhdgBUSp1JUA6XyF2RCwrDIgSzE3n4VzzjtlVV3PvXmjDPdLdoOQRTrvtavNqnAKXw9mDELkBIhDJaxrJZIy/YRLfbjFvpcVgHHfS6JGu4lAK7GVwoXg5gmwjRP3VjoMpqQcm9tPKs0z0Y6crWcBHqt0PN8tJspXFfmNKdpaBH8tYwML/VPjiE6dCKhXSOMTT+PlWiC47PgE=);strokeColor=none;spacingTop=-3;spacingBottom=-3;spacingLeft=-3;spacingRight=-3;points=[];labelBackgroundColor=none;rounded=0;html=1;whiteSpace=wrap;fontFamily=Helvetica;fontSize=12;fontColor=default;" vertex="1" parent="gBlH9YvF4Skhn-Lli2iF-43">
          <mxGeometry x="249" y="142.5" width="150" height="40" as="geometry" />
        </mxCell>
        <mxCell id="gBlH9YvF4Skhn-Lli2iF-89" style="edgeStyle=orthogonalEdgeStyle;rounded=0;orthogonalLoop=1;jettySize=auto;html=1;" edge="1" parent="gBlH9YvF4Skhn-Lli2iF-43" source="gBlH9YvF4Skhn-Lli2iF-90">
          <mxGeometry relative="1" as="geometry">
            <mxPoint x="209" y="187.5" as="targetPoint" />
          </mxGeometry>
        </mxCell>
        <mxCell id="gBlH9YvF4Skhn-Lli2iF-90" value="&lt;div style=&quot;&quot;&gt;&lt;font style=&quot;font-family: Arial; color: rgb(0, 0, 0); direction: ltr; letter-spacing: 0px; line-height: 120%; opacity: 1; font-size: 16px;&quot;&gt;ins-comp-settlement&lt;/font&gt;&lt;/div&gt;" style="verticalAlign=middle;align=center;overflow=width;vsdxID=5;fillColor=#fff2bf;gradientColor=none;shape=stencil(vVNBDsIgEHwNRwxCjHqu+g9iaUtEaBa09fdSwdpi9dBDb8vOwOwsGcQyW/FaIEqsA3MRjcxdhdgBUSp1JUA6XyF2RCwrDIgSzE3n4VzzjtlVV3PvXmjDPdLdoOQRTrvtavNqnAKXw9mDELkBIhDJaxrJZIy/YRLfbjFvpcVgHHfS6JGu4lAK7GVwoXg5gmwjRP3VjoMpqQcm9tPKs0z0Y6crWcBHqt0PN8tJspXFfmNKdpaBH8tYwML/VPjiE6dCKhXSOMTT+PlWiC47PgE=);strokeColor=none;spacingTop=-3;spacingBottom=-3;spacingLeft=-3;spacingRight=-3;points=[];labelBackgroundColor=none;rounded=0;html=1;whiteSpace=wrap;fontFamily=Helvetica;fontSize=12;fontColor=default;" vertex="1" parent="gBlH9YvF4Skhn-Lli2iF-43">
          <mxGeometry x="239" y="217.5" width="150" height="40" as="geometry" />
        </mxCell>
        <mxCell id="gBlH9YvF4Skhn-Lli2iF-91" style="edgeStyle=orthogonalEdgeStyle;rounded=0;orthogonalLoop=1;jettySize=auto;html=1;entryX=0;entryY=0.333;entryDx=0;entryDy=0;entryPerimeter=0;exitX=0;exitY=0.5;exitDx=0;exitDy=0;exitPerimeter=0;" edge="1" parent="gBlH9YvF4Skhn-Lli2iF-43" source="gBlH9YvF4Skhn-Lli2iF-84" target="gBlH9YvF4Skhn-Lli2iF-87">
          <mxGeometry relative="1" as="geometry">
            <Array as="points">
              <mxPoint x="69" y="82.5" />
              <mxPoint x="69" y="237.5" />
            </Array>
          </mxGeometry>
        </mxCell>
        <mxCell id="gBlH9YvF4Skhn-Lli2iF-92" style="edgeStyle=orthogonalEdgeStyle;rounded=0;orthogonalLoop=1;jettySize=auto;html=1;entryX=0.422;entryY=0;entryDx=0;entryDy=0;entryPerimeter=0;" edge="1" parent="gBlH9YvF4Skhn-Lli2iF-43" target="gBlH9YvF4Skhn-Lli2iF-86">
          <mxGeometry relative="1" as="geometry">
            <mxPoint x="140" y="107.5" as="sourcePoint" />
            <Array as="points">
              <mxPoint x="139" y="108.5" />
              <mxPoint x="139" y="135.5" />
              <mxPoint x="140" y="135.5" />
            </Array>
          </mxGeometry>
        </mxCell>
        <mxCell id="gBlH9YvF4Skhn-Lli2iF-93" style="edgeStyle=orthogonalEdgeStyle;rounded=0;orthogonalLoop=1;jettySize=auto;html=1;entryX=0.433;entryY=0.875;entryDx=0;entryDy=0;entryPerimeter=0;" edge="1" parent="gBlH9YvF4Skhn-Lli2iF-43" source="gBlH9YvF4Skhn-Lli2iF-90" target="gBlH9YvF4Skhn-Lli2iF-88">
          <mxGeometry relative="1" as="geometry" />
        </mxCell>
        <mxCell id="gBlH9YvF4Skhn-Lli2iF-94" value="REST" style="text;html=1;align=center;verticalAlign=middle;whiteSpace=wrap;rounded=0;fontFamily=Helvetica;fontSize=12;fontColor=default;" vertex="1" parent="gBlH9YvF4Skhn-Lli2iF-43">
          <mxGeometry x="139" y="117.5" width="40" height="20" as="geometry" />
        </mxCell>
        <mxCell id="gBlH9YvF4Skhn-Lli2iF-95" value="REST" style="text;html=1;align=center;verticalAlign=middle;whiteSpace=wrap;rounded=0;fontFamily=Helvetica;fontSize=12;fontColor=default;" vertex="1" parent="gBlH9YvF4Skhn-Lli2iF-43">
          <mxGeometry x="29" y="107.5" width="40" height="20" as="geometry" />
        </mxCell>
        <mxCell id="gBlH9YvF4Skhn-Lli2iF-96" value="REST" style="text;html=1;align=center;verticalAlign=middle;whiteSpace=wrap;rounded=0;fontFamily=Helvetica;fontSize=12;fontColor=default;" vertex="1" parent="gBlH9YvF4Skhn-Lli2iF-43">
          <mxGeometry x="209" y="142.5" width="40" height="20" as="geometry" />
        </mxCell>
        <mxCell id="gBlH9YvF4Skhn-Lli2iF-97" value="REST" style="text;html=1;align=center;verticalAlign=middle;whiteSpace=wrap;rounded=0;fontFamily=Helvetica;fontSize=12;fontColor=default;" vertex="1" parent="gBlH9YvF4Skhn-Lli2iF-43">
          <mxGeometry x="319" y="197.5" width="40" height="20" as="geometry" />
        </mxCell>
        <mxCell id="gBlH9YvF4Skhn-Lli2iF-98" value="REST" style="text;html=1;align=center;verticalAlign=middle;whiteSpace=wrap;rounded=0;fontFamily=Helvetica;fontSize=12;fontColor=default;" vertex="1" parent="gBlH9YvF4Skhn-Lli2iF-43">
          <mxGeometry x="169" y="197.5" width="40" height="20" as="geometry" />
        </mxCell>
        <mxCell id="gBlH9YvF4Skhn-Lli2iF-206" value="Worker nodes" style="text;html=1;align=center;verticalAlign=middle;whiteSpace=wrap;rounded=0;" vertex="1" parent="gBlH9YvF4Skhn-Lli2iF-43">
          <mxGeometry x="392.75" y="67.5" width="60" height="30" as="geometry" />
        </mxCell>
        <mxCell id="gBlH9YvF4Skhn-Lli2iF-204" style="vsdxID=5;fillColor=none;gradientColor=none;shape=stencil(vVPLEoIgFP0aljgEVuPa6j+YRGUica6U9vdhUKk4LWzG3X0cOPdcOIilTclrgShpDOiLaGVmSsQOiFJZlQKksRFiR8TSXIMoQN+qzOU175F9dNX3/obOnSP9CUoeLktIFL8KJ4flcLZN8NhtRJiDwxsf7VwhQHjAhniCDvNONhi04UbqakSuOBQCWy6cK16MWk0rRB2U/XRKVgMlSRwl+1nyhWI+s0+Xs4KYgNvPtlBKuJvVniX4En+9yfxWVpDx2yc2+Bosl0o5fw77U0PakjMzOz4B);strokeColor=#ff5958;spacingTop=-3;spacingBottom=-3;spacingLeft=-3;spacingRight=-3;points=[];labelBackgroundColor=none;rounded=0;html=1;whiteSpace=wrap;" vertex="1" parent="gBlH9YvF4Skhn-Lli2iF-43">
          <mxGeometry x="14" y="44.81999999999999" width="430" height="233.5" as="geometry" />
        </mxCell>
        <mxCell id="gBlH9YvF4Skhn-Lli2iF-51" style="edgeStyle=orthogonalEdgeStyle;rounded=0;orthogonalLoop=1;jettySize=auto;html=1;" edge="1" parent="1" source="gBlH9YvF4Skhn-Lli2iF-30" target="gBlH9YvF4Skhn-Lli2iF-48">
          <mxGeometry relative="1" as="geometry">
            <mxPoint x="974" y="270" as="targetPoint" />
          </mxGeometry>
        </mxCell>
        <mxCell id="gBlH9YvF4Skhn-Lli2iF-53" style="edgeStyle=orthogonalEdgeStyle;rounded=0;orthogonalLoop=1;jettySize=auto;html=1;" edge="1" parent="1" source="gBlH9YvF4Skhn-Lli2iF-30">
          <mxGeometry relative="1" as="geometry">
            <mxPoint x="-102" y="320" as="targetPoint" />
          </mxGeometry>
        </mxCell>
        <mxCell id="gBlH9YvF4Skhn-Lli2iF-54" value="health check" style="text;html=1;align=center;verticalAlign=middle;whiteSpace=wrap;rounded=0;fontFamily=Helvetica;fontSize=12;fontColor=default;" vertex="1" parent="1">
          <mxGeometry x="710" y="120" width="85" height="20" as="geometry" />
        </mxCell>
        <mxCell id="gBlH9YvF4Skhn-Lli2iF-55" value="health check" style="text;html=1;align=center;verticalAlign=middle;whiteSpace=wrap;rounded=0;fontFamily=Helvetica;fontSize=12;fontColor=default;" vertex="1" parent="1">
          <mxGeometry x="371" y="220" width="85" height="20" as="geometry" />
        </mxCell>
        <mxCell id="gBlH9YvF4Skhn-Lli2iF-56" value="health check" style="text;html=1;align=center;verticalAlign=middle;whiteSpace=wrap;rounded=0;fontFamily=Helvetica;fontSize=12;fontColor=default;" vertex="1" parent="1">
          <mxGeometry x="30" y="120" width="85" height="20" as="geometry" />
        </mxCell>
        <mxCell id="gBlH9YvF4Skhn-Lli2iF-209" style="edgeStyle=orthogonalEdgeStyle;rounded=0;orthogonalLoop=1;jettySize=auto;html=1;" edge="1" parent="1" source="gBlH9YvF4Skhn-Lli2iF-99">
          <mxGeometry relative="1" as="geometry">
            <mxPoint x="390" y="60" as="targetPoint" />
            <Array as="points">
              <mxPoint x="417" y="60" />
              <mxPoint x="390" y="61" />
            </Array>
          </mxGeometry>
        </mxCell>
        <mxCell id="gBlH9YvF4Skhn-Lli2iF-99" value="CDN (статика)" style="ellipse;shape=cloud;whiteSpace=wrap;html=1;" vertex="1" parent="1">
          <mxGeometry x="442" y="4" width="118" height="56" as="geometry" />
        </mxCell>
        <mxCell id="gBlH9YvF4Skhn-Lli2iF-100" style="edgeStyle=orthogonalEdgeStyle;rounded=0;orthogonalLoop=1;jettySize=auto;html=1;entryX=0.49;entryY=0.001;entryDx=0;entryDy=0;entryPerimeter=0;" edge="1" parent="1" source="gBlH9YvF4Skhn-Lli2iF-30" target="gBlH9YvF4Skhn-Lli2iF-44">
          <mxGeometry relative="1" as="geometry" />
        </mxCell>
        <mxCell id="gBlH9YvF4Skhn-Lli2iF-121" style="edgeStyle=orthogonalEdgeStyle;rounded=0;orthogonalLoop=1;jettySize=auto;html=1;entryX=0.07;entryY=0.4;entryDx=0;entryDy=0;entryPerimeter=0;" edge="1" parent="1" source="gBlH9YvF4Skhn-Lli2iF-21" target="gBlH9YvF4Skhn-Lli2iF-99">
          <mxGeometry relative="1" as="geometry" />
        </mxCell>
        <mxCell id="gBlH9YvF4Skhn-Lli2iF-154" style="edgeStyle=orthogonalEdgeStyle;rounded=0;orthogonalLoop=1;jettySize=auto;html=1;" edge="1" parent="1" source="gBlH9YvF4Skhn-Lli2iF-125" target="gBlH9YvF4Skhn-Lli2iF-130">
          <mxGeometry relative="1" as="geometry">
            <Array as="points">
              <mxPoint x="-95" y="700" />
              <mxPoint x="-195" y="700" />
            </Array>
          </mxGeometry>
        </mxCell>
        <mxCell id="gBlH9YvF4Skhn-Lli2iF-125" value="&lt;div style=&quot;font-size: 1px&quot;&gt;&lt;font style=&quot;font-size: 22.58px; font-family: Arial; color: rgb(0, 0, 0); direction: ltr; letter-spacing: 0px; line-height: 120%; opacity: 1;&quot;&gt;HAProxy&lt;br&gt;&lt;/font&gt;&lt;/div&gt;" style="verticalAlign=middle;align=center;overflow=width;vsdxID=5;fillColor=#fff2bf;gradientColor=none;shape=stencil(vVNBDsIgEHwNRwxCjHqu+g9iaUtEaBa09fdSwdpi9dBDb8vOwOwsGcQyW/FaIEqsA3MRjcxdhdgBUSp1JUA6XyF2RCwrDIgSzE3n4VzzjtlVV3PvXmjDPdLdoOQRTrvtavNqnAKXw9mDELkBIhDJaxrJZIy/YRLfbjFvpcVgHHfS6JGu4lAK7GVwoXg5gmwjRP3VjoMpqQcm9tPKs0z0Y6crWcBHqt0PN8tJspXFfmNKdpaBH8tYwML/VPjiE6dCKhXSOMTT+PlWiC47PgE=);strokeColor=none;spacingTop=-3;spacingBottom=-3;spacingLeft=-3;spacingRight=-3;points=[];labelBackgroundColor=none;rounded=0;html=1;whiteSpace=wrap;" vertex="1" parent="1">
          <mxGeometry x="-180" y="640" width="170" height="40" as="geometry" />
        </mxCell>
        <mxCell id="gBlH9YvF4Skhn-Lli2iF-126" style="edgeStyle=orthogonalEdgeStyle;rounded=0;orthogonalLoop=1;jettySize=auto;html=1;" edge="1" parent="1" source="gBlH9YvF4Skhn-Lli2iF-65" target="gBlH9YvF4Skhn-Lli2iF-125">
          <mxGeometry relative="1" as="geometry" />
        </mxCell>
        <mxCell id="gBlH9YvF4Skhn-Lli2iF-127" style="edgeStyle=orthogonalEdgeStyle;rounded=0;orthogonalLoop=1;jettySize=auto;html=1;entryX=0.681;entryY=0.062;entryDx=0;entryDy=0;entryPerimeter=0;" edge="1" parent="1" source="gBlH9YvF4Skhn-Lli2iF-64" target="gBlH9YvF4Skhn-Lli2iF-125">
          <mxGeometry relative="1" as="geometry">
            <Array as="points">
              <mxPoint x="-280" y="475" />
              <mxPoint x="-280" y="580" />
              <mxPoint x="-64" y="580" />
            </Array>
          </mxGeometry>
        </mxCell>
        <mxCell id="gBlH9YvF4Skhn-Lli2iF-129" value="" style="shape=image;verticalLabelPosition=bottom;verticalAlign=top;imageAspect=0;aspect=fixed;image=data:image/svg+xml,PHN2ZyB4bWxucz0iaHR0cDovL3d3dy53My5vcmcvMjAwMC9zdmciIHdpZHRoPSIzMiIgaGVpZ2h0PSIzMiIgdmlld0JveD0iMCAwIDMyIDMyIiBmaWxsPSJub25lIj4mI3hhOzxwYXRoIGQ9Ik0wIDE2QzAgNy4xNjM0NCA3LjE2MzQ0IDAgMTYgMFYwQzI0LjgzNjYgMCAzMiA3LjE2MzQ0IDMyIDE2VjE2QzMyIDI0LjgzNjYgMjQuODM2NiAzMiAxNiAzMlYzMkM3LjE2MzQ0IDMyIDAgMjQuODM2NiAwIDE2VjE2WiIgZmlsbD0iIzUyODJGRiIvPiYjeGE7PHBhdGggZD0iTTE3IDE3SDE5LjNDMTkuNyAxNy42IDIwLjMgMTggMjEgMThDMjIuMSAxOCAyMyAxNy4xIDIzIDE2QzIzIDE0LjkgMjIuMSAxNCAyMSAxNEMyMC4zIDE0IDE5LjYgMTQuNCAxOS4zIDE1SDE3VjExSDE5LjNDMTkuNyAxMS42IDIwLjMgMTIgMjEgMTJDMjIuMSAxMiAyMyAxMS4xIDIzIDEwQzIzIDguOSAyMi4xIDggMjEgOEMyMC4zIDggMTkuNiA4LjQgMTkuMyA5SDE3QzE1LjkgOSAxNSA5LjkgMTUgMTFWMTUuM0wxMCAxMlYxNUg3VjE3SDEwVjIwTDE1IDE2LjdWMjFDMTUgMjIuMSAxNS45IDIzIDE3IDIzSDE5LjNDMTkuNyAyMy42IDIwLjMgMjQgMjEgMjRDMjIuMSAyNCAyMyAyMy4xIDIzIDIyQzIzIDIwLjkgMjIuMSAyMCAyMSAyMEMyMC4zIDIwIDE5LjYgMjAuNCAxOS4zIDIxSDE3VjE3WiIgZmlsbD0id2hpdGUiLz4mI3hhOzwvc3ZnPg==;" vertex="1" parent="1">
          <mxGeometry x="-50" y="649.5" width="31" height="31" as="geometry" />
        </mxCell>
        <mxCell id="gBlH9YvF4Skhn-Lli2iF-164" style="edgeStyle=orthogonalEdgeStyle;rounded=0;orthogonalLoop=1;jettySize=auto;html=1;" edge="1" parent="1" source="gBlH9YvF4Skhn-Lli2iF-132" target="gBlH9YvF4Skhn-Lli2iF-163">
          <mxGeometry relative="1" as="geometry" />
        </mxCell>
        <mxCell id="gBlH9YvF4Skhn-Lli2iF-132" value="core-db primary" style="shape=cylinder3;whiteSpace=wrap;html=1;boundedLbl=1;backgroundOutline=1;size=15;" vertex="1" parent="1">
          <mxGeometry x="210" y="720" width="130" height="50" as="geometry" />
        </mxCell>
        <mxCell id="gBlH9YvF4Skhn-Lli2iF-135" value="client-info db replica" style="shape=cylinder3;whiteSpace=wrap;html=1;boundedLbl=1;backgroundOutline=1;size=15;" vertex="1" parent="1">
          <mxGeometry x="950" y="800" width="130" height="50" as="geometry" />
        </mxCell>
        <mxCell id="gBlH9YvF4Skhn-Lli2iF-158" style="edgeStyle=orthogonalEdgeStyle;rounded=0;orthogonalLoop=1;jettySize=auto;html=1;" edge="1" parent="1" source="gBlH9YvF4Skhn-Lli2iF-136" target="gBlH9YvF4Skhn-Lli2iF-132">
          <mxGeometry relative="1" as="geometry" />
        </mxCell>
        <mxCell id="gBlH9YvF4Skhn-Lli2iF-159" style="edgeStyle=orthogonalEdgeStyle;rounded=0;orthogonalLoop=1;jettySize=auto;html=1;" edge="1" parent="1" source="gBlH9YvF4Skhn-Lli2iF-136" target="gBlH9YvF4Skhn-Lli2iF-134">
          <mxGeometry relative="1" as="geometry" />
        </mxCell>
        <mxCell id="gBlH9YvF4Skhn-Lli2iF-195" style="edgeStyle=orthogonalEdgeStyle;rounded=0;orthogonalLoop=1;jettySize=auto;html=1;" edge="1" parent="1" source="gBlH9YvF4Skhn-Lli2iF-136" target="gBlH9YvF4Skhn-Lli2iF-162">
          <mxGeometry relative="1" as="geometry">
            <Array as="points">
              <mxPoint x="490" y="780" />
              <mxPoint x="585" y="780" />
            </Array>
          </mxGeometry>
        </mxCell>
        <mxCell id="gBlH9YvF4Skhn-Lli2iF-136" value="&lt;div style=&quot;font-size: 1px&quot;&gt;&lt;font style=&quot;font-size: 22.58px; font-family: Arial; color: rgb(0, 0, 0); direction: ltr; letter-spacing: 0px; line-height: 120%; opacity: 1;&quot;&gt;HAProxy&lt;br&gt;&lt;/font&gt;&lt;/div&gt;" style="verticalAlign=middle;align=center;overflow=width;vsdxID=5;fillColor=#fff2bf;gradientColor=none;shape=stencil(vVNBDsIgEHwNRwxCjHqu+g9iaUtEaBa09fdSwdpi9dBDb8vOwOwsGcQyW/FaIEqsA3MRjcxdhdgBUSp1JUA6XyF2RCwrDIgSzE3n4VzzjtlVV3PvXmjDPdLdoOQRTrvtavNqnAKXw9mDELkBIhDJaxrJZIy/YRLfbjFvpcVgHHfS6JGu4lAK7GVwoXg5gmwjRP3VjoMpqQcm9tPKs0z0Y6crWcBHqt0PN8tJspXFfmNKdpaBH8tYwML/VPjiE6dCKhXSOMTT+PlWiC47PgE=);strokeColor=none;spacingTop=-3;spacingBottom=-3;spacingLeft=-3;spacingRight=-3;points=[];labelBackgroundColor=none;rounded=0;html=1;whiteSpace=wrap;" vertex="1" parent="1">
          <mxGeometry x="360" y="640" width="170" height="50" as="geometry" />
        </mxCell>
        <mxCell id="gBlH9YvF4Skhn-Lli2iF-137" value="" style="shape=image;verticalLabelPosition=bottom;verticalAlign=top;imageAspect=0;aspect=fixed;image=data:image/svg+xml,PHN2ZyB4bWxucz0iaHR0cDovL3d3dy53My5vcmcvMjAwMC9zdmciIHdpZHRoPSIzMiIgaGVpZ2h0PSIzMiIgdmlld0JveD0iMCAwIDMyIDMyIiBmaWxsPSJub25lIj4mI3hhOzxwYXRoIGQ9Ik0wIDE2QzAgNy4xNjM0NCA3LjE2MzQ0IDAgMTYgMFYwQzI0LjgzNjYgMCAzMiA3LjE2MzQ0IDMyIDE2VjE2QzMyIDI0LjgzNjYgMjQuODM2NiAzMiAxNiAzMlYzMkM3LjE2MzQ0IDMyIDAgMjQuODM2NiAwIDE2VjE2WiIgZmlsbD0iIzUyODJGRiIvPiYjeGE7PHBhdGggZD0iTTE3IDE3SDE5LjNDMTkuNyAxNy42IDIwLjMgMTggMjEgMThDMjIuMSAxOCAyMyAxNy4xIDIzIDE2QzIzIDE0LjkgMjIuMSAxNCAyMSAxNEMyMC4zIDE0IDE5LjYgMTQuNCAxOS4zIDE1SDE3VjExSDE5LjNDMTkuNyAxMS42IDIwLjMgMTIgMjEgMTJDMjIuMSAxMiAyMyAxMS4xIDIzIDEwQzIzIDguOSAyMi4xIDggMjEgOEMyMC4zIDggMTkuNiA4LjQgMTkuMyA5SDE3QzE1LjkgOSAxNSA5LjkgMTUgMTFWMTUuM0wxMCAxMlYxNUg3VjE3SDEwVjIwTDE1IDE2LjdWMjFDMTUgMjIuMSAxNS45IDIzIDE3IDIzSDE5LjNDMTkuNyAyMy42IDIwLjMgMjQgMjEgMjRDMjIuMSAyNCAyMyAyMy4xIDIzIDIyQzIzIDIwLjkgMjIuMSAyMCAyMSAyMEMyMC4zIDIwIDE5LjYgMjAuNCAxOS4zIDIxSDE3VjE3WiIgZmlsbD0id2hpdGUiLz4mI3hhOzwvc3ZnPg==;" vertex="1" parent="1">
          <mxGeometry x="490" y="649.5" width="31" height="31" as="geometry" />
        </mxCell>
        <mxCell id="gBlH9YvF4Skhn-Lli2iF-160" style="edgeStyle=orthogonalEdgeStyle;rounded=0;orthogonalLoop=1;jettySize=auto;html=1;" edge="1" parent="1" source="gBlH9YvF4Skhn-Lli2iF-138" target="gBlH9YvF4Skhn-Lli2iF-133">
          <mxGeometry relative="1" as="geometry" />
        </mxCell>
        <mxCell id="gBlH9YvF4Skhn-Lli2iF-161" style="edgeStyle=orthogonalEdgeStyle;rounded=0;orthogonalLoop=1;jettySize=auto;html=1;" edge="1" parent="1" source="gBlH9YvF4Skhn-Lli2iF-138" target="gBlH9YvF4Skhn-Lli2iF-135">
          <mxGeometry relative="1" as="geometry" />
        </mxCell>
        <mxCell id="gBlH9YvF4Skhn-Lli2iF-138" value="&lt;div style=&quot;font-size: 1px&quot;&gt;&lt;font style=&quot;font-size: 22.58px; font-family: Arial; color: rgb(0, 0, 0); direction: ltr; letter-spacing: 0px; line-height: 120%; opacity: 1;&quot;&gt;HAProxy&lt;br&gt;&lt;/font&gt;&lt;/div&gt;" style="verticalAlign=middle;align=center;overflow=width;vsdxID=5;fillColor=#fff2bf;gradientColor=none;shape=stencil(vVNBDsIgEHwNRwxCjHqu+g9iaUtEaBa09fdSwdpi9dBDb8vOwOwsGcQyW/FaIEqsA3MRjcxdhdgBUSp1JUA6XyF2RCwrDIgSzE3n4VzzjtlVV3PvXmjDPdLdoOQRTrvtavNqnAKXw9mDELkBIhDJaxrJZIy/YRLfbjFvpcVgHHfS6JGu4lAK7GVwoXg5gmwjRP3VjoMpqQcm9tPKs0z0Y6crWcBHqt0PN8tJspXFfmNKdpaBH8tYwML/VPjiE6dCKhXSOMTT+PlWiC47PgE=);strokeColor=none;spacingTop=-3;spacingBottom=-3;spacingLeft=-3;spacingRight=-3;points=[];labelBackgroundColor=none;rounded=0;html=1;whiteSpace=wrap;" vertex="1" parent="1">
          <mxGeometry x="930" y="640" width="170" height="50" as="geometry" />
        </mxCell>
        <mxCell id="gBlH9YvF4Skhn-Lli2iF-139" value="" style="shape=image;verticalLabelPosition=bottom;verticalAlign=top;imageAspect=0;aspect=fixed;image=data:image/svg+xml,PHN2ZyB4bWxucz0iaHR0cDovL3d3dy53My5vcmcvMjAwMC9zdmciIHdpZHRoPSIzMiIgaGVpZ2h0PSIzMiIgdmlld0JveD0iMCAwIDMyIDMyIiBmaWxsPSJub25lIj4mI3hhOzxwYXRoIGQ9Ik0wIDE2QzAgNy4xNjM0NCA3LjE2MzQ0IDAgMTYgMFYwQzI0LjgzNjYgMCAzMiA3LjE2MzQ0IDMyIDE2VjE2QzMyIDI0LjgzNjYgMjQuODM2NiAzMiAxNiAzMlYzMkM3LjE2MzQ0IDMyIDAgMjQuODM2NiAwIDE2VjE2WiIgZmlsbD0iIzUyODJGRiIvPiYjeGE7PHBhdGggZD0iTTE3IDE3SDE5LjNDMTkuNyAxNy42IDIwLjMgMTggMjEgMThDMjIuMSAxOCAyMyAxNy4xIDIzIDE2QzIzIDE0LjkgMjIuMSAxNCAyMSAxNEMyMC4zIDE0IDE5LjYgMTQuNCAxOS4zIDE1SDE3VjExSDE5LjNDMTkuNyAxMS42IDIwLjMgMTIgMjEgMTJDMjIuMSAxMiAyMyAxMS4xIDIzIDEwQzIzIDguOSAyMi4xIDggMjEgOEMyMC4zIDggMTkuNiA4LjQgMTkuMyA5SDE3QzE1LjkgOSAxNSA5LjkgMTUgMTFWMTUuM0wxMCAxMlYxNUg3VjE3SDEwVjIwTDE1IDE2LjdWMjFDMTUgMjIuMSAxNS45IDIzIDE3IDIzSDE5LjNDMTkuNyAyMy42IDIwLjMgMjQgMjEgMjRDMjIuMSAyNCAyMyAyMy4xIDIzIDIyQzIzIDIwLjkgMjIuMSAyMCAyMSAyMEMyMC4zIDIwIDE5LjYgMjAuNCAxOS4zIDIxSDE3VjE3WiIgZmlsbD0id2hpdGUiLz4mI3hhOzwvc3ZnPg==;" vertex="1" parent="1">
          <mxGeometry x="1060" y="649.5" width="31" height="31" as="geometry" />
        </mxCell>
        <mxCell id="gBlH9YvF4Skhn-Lli2iF-146" value="&lt;font style=&quot;font-size: 8px;&quot;&gt;Patroni cluster (Асинхронная репликация и автоматический failover между Primary и Replica)&lt;/font&gt;" style="text;html=1;align=center;verticalAlign=middle;whiteSpace=wrap;rounded=0;" vertex="1" parent="1">
          <mxGeometry x="-420" y="800" width="100" height="50" as="geometry" />
        </mxCell>
        <mxCell id="gBlH9YvF4Skhn-Lli2iF-152" value="" style="shape=image;verticalLabelPosition=bottom;verticalAlign=top;imageAspect=0;aspect=fixed;image=data:image/svg+xml,PHN2ZyB4bWxucz0iaHR0cDovL3d3dy53My5vcmcvMjAwMC9zdmciIHdpZHRoPSIzMiIgaGVpZ2h0PSIzMiIgdmlld0JveD0iMCAwIDMyIDMyIiBmaWxsPSJub25lIj4mI3hhOzxwYXRoIGQ9Ik0wIDE2QzAgNy4xNjM0NCA3LjE2MzQ0IDAgMTYgMFYwQzI0LjgzNjYgMCAzMiA3LjE2MzQ0IDMyIDE2VjE2QzMyIDI0LjgzNjYgMjQuODM2NiAzMiAxNiAzMlYzMkM3LjE2MzQ0IDMyIDAgMjQuODM2NiAwIDE2VjE2WiIgZmlsbD0iIzUyODJGRiIvPiYjeGE7PHBhdGggZmlsbC1ydWxlPSJldmVub2RkIiBjbGlwLXJ1bGU9ImV2ZW5vZGQiIGQ9Ik0xMyA4SDE4QzIxLjMgOCAyNCAxMC43IDI0IDE0VjI0SDIwVjIwSDIyVjE5SDE4LjZDMTUuNSAxOSAxMyAxNi41IDEzIDEzLjRWOFpNMTkgMTdIMjFWMTVIMTlWMTdaTTEyIDkuMDk5OThWMTMuNEMxMiAxNi44IDE0LjYgMTkuNyAxOCAyMC4xVjIwLjZDMTggMjIgMTUuOCAyMy4xIDEzIDIzLjFDMTAuMiAyMy4xIDggMjIgOCAyMC42VjExLjZDOCAxMC4zIDkuNyA5LjI5OTk4IDEyIDkuMDk5OThaIiBmaWxsPSJ3aGl0ZSIvPiYjeGE7PC9zdmc+;" vertex="1" parent="1">
          <mxGeometry x="-460" y="809" width="32" height="32" as="geometry" />
        </mxCell>
        <mxCell id="gBlH9YvF4Skhn-Lli2iF-147" value="" style="shape=image;verticalLabelPosition=bottom;verticalAlign=top;imageAspect=0;aspect=fixed;image=data:image/svg+xml,PHN2ZyB4bWxucz0iaHR0cDovL3d3dy53My5vcmcvMjAwMC9zdmciIHdpZHRoPSIzMiIgaGVpZ2h0PSIzMiIgdmlld0JveD0iMCAwIDMyIDMyIiBmaWxsPSJub25lIj4mI3hhOzxwYXRoIGQ9Ik0wIDE2QzAgNy4xNjM0NCA3LjE2MzQ0IDAgMTYgMFYwQzI0LjgzNjYgMCAzMiA3LjE2MzQ0IDMyIDE2VjE2QzMyIDI0LjgzNjYgMjQuODM2NiAzMiAxNiAzMlYzMkM3LjE2MzQ0IDMyIDAgMjQuODM2NiAwIDE2VjE2WiIgZmlsbD0iIzUyODJGRiIvPiYjeGE7PHBhdGggZmlsbC1ydWxlPSJldmVub2RkIiBjbGlwLXJ1bGU9ImV2ZW5vZGQiIGQ9Ik0xMyA4SDE4QzIxLjMgOCAyNCAxMC43IDI0IDE0VjI0SDIwVjIwSDIyVjE5SDE4LjZDMTUuNSAxOSAxMyAxNi41IDEzIDEzLjRWOFpNMTkgMTdIMjFWMTVIMTlWMTdaTTEyIDkuMDk5OThWMTMuNEMxMiAxNi44IDE0LjYgMTkuNyAxOCAyMC4xVjIwLjZDMTggMjIgMTUuOCAyMy4xIDEzIDIzLjFDMTAuMiAyMy4xIDggMjIgOCAyMC42VjExLjZDOCAxMC4zIDkuNyA5LjI5OTk4IDEyIDkuMDk5OThaIiBmaWxsPSJ3aGl0ZSIvPiYjeGE7PC9zdmc+;" vertex="1" parent="1">
          <mxGeometry x="-452" y="710" width="32" height="32" as="geometry" />
        </mxCell>
        <mxCell id="gBlH9YvF4Skhn-Lli2iF-130" value="core-db replica" style="shape=cylinder3;whiteSpace=wrap;html=1;boundedLbl=1;backgroundOutline=1;size=15;" vertex="1" parent="1">
          <mxGeometry x="-260" y="720" width="130" height="50" as="geometry" />
        </mxCell>
        <mxCell id="gBlH9YvF4Skhn-Lli2iF-131" value="client-info db replica" style="shape=cylinder3;whiteSpace=wrap;html=1;boundedLbl=1;backgroundOutline=1;size=15;" vertex="1" parent="1">
          <mxGeometry x="-80" y="800" width="130" height="50" as="geometry" />
        </mxCell>
        <mxCell id="gBlH9YvF4Skhn-Lli2iF-157" value="" style="endArrow=classic;html=1;rounded=0;" edge="1" parent="1" target="gBlH9YvF4Skhn-Lli2iF-131">
          <mxGeometry width="50" height="50" relative="1" as="geometry">
            <mxPoint x="-70" y="680" as="sourcePoint" />
            <mxPoint x="-20" y="630" as="targetPoint" />
          </mxGeometry>
        </mxCell>
        <mxCell id="gBlH9YvF4Skhn-Lli2iF-165" style="edgeStyle=orthogonalEdgeStyle;rounded=0;orthogonalLoop=1;jettySize=auto;html=1;entryX=0.635;entryY=-0.006;entryDx=0;entryDy=0;entryPerimeter=0;" edge="1" parent="1" source="gBlH9YvF4Skhn-Lli2iF-134" target="gBlH9YvF4Skhn-Lli2iF-163">
          <mxGeometry relative="1" as="geometry" />
        </mxCell>
        <mxCell id="gBlH9YvF4Skhn-Lli2iF-134" value="client-info db primary" style="shape=cylinder3;whiteSpace=wrap;html=1;boundedLbl=1;backgroundOutline=1;size=15;" vertex="1" parent="1">
          <mxGeometry x="361" y="800" width="130" height="50" as="geometry" />
        </mxCell>
        <mxCell id="gBlH9YvF4Skhn-Lli2iF-162" value="ins-comp-settlement-db" style="shape=cylinder3;whiteSpace=wrap;html=1;boundedLbl=1;backgroundOutline=1;size=15;" vertex="1" parent="1">
          <mxGeometry x="510" y="870" width="150" height="50" as="geometry" />
        </mxCell>
        <mxCell id="gBlH9YvF4Skhn-Lli2iF-163" value="&lt;div style=&quot;font-size: 1px&quot;&gt;&lt;font style=&quot;font-size: 22.58px; font-family: Arial; color: rgb(0, 0, 0); direction: ltr; letter-spacing: 0px; line-height: 120%; opacity: 1;&quot;&gt;backup s3&lt;br&gt;&lt;/font&gt;&lt;/div&gt;" style="verticalAlign=middle;align=center;overflow=width;vsdxID=5;fillColor=#fff2bf;gradientColor=none;shape=stencil(vVNBDsIgEHwNRwxCjHqu+g9iaUtEaBa09fdSwdpi9dBDb8vOwOwsGcQyW/FaIEqsA3MRjcxdhdgBUSp1JUA6XyF2RCwrDIgSzE3n4VzzjtlVV3PvXmjDPdLdoOQRTrvtavNqnAKXw9mDELkBIhDJaxrJZIy/YRLfbjFvpcVgHHfS6JGu4lAK7GVwoXg5gmwjRP3VjoMpqQcm9tPKs0z0Y6crWcBHqt0PN8tJspXFfmNKdpaBH8tYwML/VPjiE6dCKhXSOMTT+PlWiC47PgE=);strokeColor=none;spacingTop=-3;spacingBottom=-3;spacingLeft=-3;spacingRight=-3;points=[];labelBackgroundColor=none;rounded=0;html=1;whiteSpace=wrap;" vertex="1" parent="1">
          <mxGeometry x="299" y="990" width="211" height="84" as="geometry" />
        </mxCell>
        <mxCell id="gBlH9YvF4Skhn-Lli2iF-166" style="edgeStyle=orthogonalEdgeStyle;rounded=0;orthogonalLoop=1;jettySize=auto;html=1;entryX=0.997;entryY=0.588;entryDx=0;entryDy=0;entryPerimeter=0;" edge="1" parent="1" source="gBlH9YvF4Skhn-Lli2iF-162" target="gBlH9YvF4Skhn-Lli2iF-163">
          <mxGeometry relative="1" as="geometry" />
        </mxCell>
        <mxCell id="gBlH9YvF4Skhn-Lli2iF-167" value="каждые 15 минут" style="text;html=1;align=center;verticalAlign=middle;whiteSpace=wrap;rounded=0;" vertex="1" parent="1">
          <mxGeometry x="330" y="940" width="60" height="30" as="geometry" />
        </mxCell>
        <mxCell id="gBlH9YvF4Skhn-Lli2iF-168" value="каждые 15 минут" style="text;html=1;align=center;verticalAlign=middle;whiteSpace=wrap;rounded=0;" vertex="1" parent="1">
          <mxGeometry x="437.5" y="940" width="60" height="30" as="geometry" />
        </mxCell>
        <mxCell id="gBlH9YvF4Skhn-Lli2iF-169" value="ежедневно" style="text;html=1;align=center;verticalAlign=middle;whiteSpace=wrap;rounded=0;" vertex="1" parent="1">
          <mxGeometry x="590" y="970" width="60" height="30" as="geometry" />
        </mxCell>
        <mxCell id="gBlH9YvF4Skhn-Lli2iF-197" style="edgeStyle=orthogonalEdgeStyle;rounded=0;orthogonalLoop=1;jettySize=auto;html=1;entryX=0.2;entryY=0.073;entryDx=0;entryDy=0;entryPerimeter=0;" edge="1" parent="1" source="gBlH9YvF4Skhn-Lli2iF-87" target="gBlH9YvF4Skhn-Lli2iF-136">
          <mxGeometry relative="1" as="geometry" />
        </mxCell>
        <mxCell id="gBlH9YvF4Skhn-Lli2iF-198" style="edgeStyle=orthogonalEdgeStyle;rounded=0;orthogonalLoop=1;jettySize=auto;html=1;" edge="1" parent="1" source="gBlH9YvF4Skhn-Lli2iF-90" target="gBlH9YvF4Skhn-Lli2iF-136">
          <mxGeometry relative="1" as="geometry" />
        </mxCell>
        <mxCell id="gBlH9YvF4Skhn-Lli2iF-199" style="edgeStyle=orthogonalEdgeStyle;rounded=0;orthogonalLoop=1;jettySize=auto;html=1;entryX=0.406;entryY=0.012;entryDx=0;entryDy=0;entryPerimeter=0;" edge="1" parent="1" source="gBlH9YvF4Skhn-Lli2iF-86" target="gBlH9YvF4Skhn-Lli2iF-136">
          <mxGeometry relative="1" as="geometry">
            <Array as="points">
              <mxPoint x="240" y="495" />
              <mxPoint x="240" y="610" />
              <mxPoint x="429" y="610" />
            </Array>
          </mxGeometry>
        </mxCell>
        <mxCell id="gBlH9YvF4Skhn-Lli2iF-200" style="edgeStyle=orthogonalEdgeStyle;rounded=0;orthogonalLoop=1;jettySize=auto;html=1;entryX=0.006;entryY=0.237;entryDx=0;entryDy=0;entryPerimeter=0;" edge="1" parent="1" source="gBlH9YvF4Skhn-Lli2iF-67" target="gBlH9YvF4Skhn-Lli2iF-136">
          <mxGeometry relative="1" as="geometry">
            <Array as="points">
              <mxPoint x="-5" y="652" />
            </Array>
          </mxGeometry>
        </mxCell>
        <mxCell id="gBlH9YvF4Skhn-Lli2iF-201" style="edgeStyle=orthogonalEdgeStyle;rounded=0;orthogonalLoop=1;jettySize=auto;html=1;entryX=1;entryY=0.75;entryDx=0;entryDy=0;" edge="1" parent="1" source="gBlH9YvF4Skhn-Lli2iF-106" target="gBlH9YvF4Skhn-Lli2iF-137">
          <mxGeometry relative="1" as="geometry">
            <Array as="points">
              <mxPoint x="1112" y="610" />
              <mxPoint x="779" y="610" />
              <mxPoint x="779" y="673" />
            </Array>
          </mxGeometry>
        </mxCell>
        <mxCell id="gBlH9YvF4Skhn-Lli2iF-202" style="edgeStyle=orthogonalEdgeStyle;rounded=0;orthogonalLoop=1;jettySize=auto;html=1;entryX=0.194;entryY=0.033;entryDx=0;entryDy=0;entryPerimeter=0;" edge="1" parent="1" source="gBlH9YvF4Skhn-Lli2iF-104" target="gBlH9YvF4Skhn-Lli2iF-138">
          <mxGeometry relative="1" as="geometry" />
        </mxCell>
        <mxCell id="gBlH9YvF4Skhn-Lli2iF-203" style="edgeStyle=orthogonalEdgeStyle;rounded=0;orthogonalLoop=1;jettySize=auto;html=1;" edge="1" parent="1" source="gBlH9YvF4Skhn-Lli2iF-103" target="gBlH9YvF4Skhn-Lli2iF-138">
          <mxGeometry relative="1" as="geometry">
            <Array as="points">
              <mxPoint x="980" y="578" />
              <mxPoint x="990" y="578" />
            </Array>
          </mxGeometry>
        </mxCell>
        <mxCell id="gBlH9YvF4Skhn-Lli2iF-214" style="vsdxID=5;fillColor=none;gradientColor=none;strokeColor=none;shadow=1;spacingTop=-3;spacingBottom=-3;spacingLeft=-3;spacingRight=-3;points=[];labelBackgroundColor=none;rounded=0;html=1;whiteSpace=wrap;" vertex="1" parent="1">
          <mxGeometry x="-250" y="940" width="262" height="169" as="geometry" />
        </mxCell>
        <mxCell id="gBlH9YvF4Skhn-Lli2iF-215" value="Партнеры" style="vsdxID=6;fillColor=#f8cecc;shape=stencil(vVNhD4IgEP01fNQRLJefzf4HS1QWgTsp7d8HoaVRa7PNb8fdO969g4do1tas4Yjg1oA+8U4UpkZ0jwgRquYgjI0QzRHNSg28An1RhT83zCFddNZXd0Pv+7DrIPjmTymOE/rIHDyYwdFWYQAnMd56PIwNMd35TAAZEBs8UPQR60UbgTbMCK1m9JJBxSNLFpWSVbNS23HeBOlhPCnUREtK4/Qz+VI1z+GD/awgJyAfp1uqJtzPak8TfIv/3uXLYlYQ8sMvNng5rRRSeqNO6+/OtCnvaprfAQ==);strokeColor=#b85450;shadow=1;spacingTop=-3;spacingBottom=-3;spacingLeft=-3;spacingRight=-3;points=[];labelBackgroundColor=none;rounded=0;html=1;whiteSpace=wrap;" vertex="1" parent="gBlH9YvF4Skhn-Lli2iF-214">
          <mxGeometry y="-10" width="250" height="60" as="geometry" />
        </mxCell>
        <mxCell id="gBlH9YvF4Skhn-Lli2iF-220" value="Системы страховых" style="vsdxID=6;fillColor=#f8cecc;shape=stencil(vVNhD4IgEP01fNQRLJefzf4HS1QWgTsp7d8HoaVRa7PNb8fdO969g4do1tas4Yjg1oA+8U4UpkZ0jwgRquYgjI0QzRHNSg28An1RhT83zCFddNZXd0Pv+7DrIPjmTymOE/rIHDyYwdFWYQAnMd56PIwNMd35TAAZEBs8UPQR60UbgTbMCK1m9JJBxSNLFpWSVbNS23HeBOlhPCnUREtK4/Qz+VI1z+GD/awgJyAfp1uqJtzPak8TfIv/3uXLYlYQ8sMvNng5rRRSeqNO6+/OtCnvaprfAQ==);strokeColor=#b85450;shadow=1;spacingTop=-3;spacingBottom=-3;spacingLeft=-3;spacingRight=-3;points=[];labelBackgroundColor=none;rounded=0;html=1;whiteSpace=wrap;" vertex="1" parent="1">
          <mxGeometry x="760" y="1074" width="250" height="60" as="geometry" />
        </mxCell>
        <mxCell id="gBlH9YvF4Skhn-Lli2iF-224" style="edgeStyle=orthogonalEdgeStyle;rounded=0;orthogonalLoop=1;jettySize=auto;html=1;entryX=1.011;entryY=0.571;entryDx=0;entryDy=0;entryPerimeter=0;" edge="1" parent="1" source="gBlH9YvF4Skhn-Lli2iF-106" target="gBlH9YvF4Skhn-Lli2iF-220">
          <mxGeometry relative="1" as="geometry">
            <Array as="points">
              <mxPoint x="1210" y="580" />
              <mxPoint x="1210" y="1108" />
            </Array>
          </mxGeometry>
        </mxCell>
        <mxCell id="gBlH9YvF4Skhn-Lli2iF-225" style="edgeStyle=orthogonalEdgeStyle;rounded=0;orthogonalLoop=1;jettySize=auto;html=1;entryX=1.016;entryY=0.529;entryDx=0;entryDy=0;entryPerimeter=0;" edge="1" parent="1" source="gBlH9YvF4Skhn-Lli2iF-105" target="gBlH9YvF4Skhn-Lli2iF-220">
          <mxGeometry relative="1" as="geometry">
            <Array as="points">
              <mxPoint x="1240" y="495" />
              <mxPoint x="1240" y="1106" />
            </Array>
          </mxGeometry>
        </mxCell>
        <mxCell id="gBlH9YvF4Skhn-Lli2iF-226" style="edgeStyle=orthogonalEdgeStyle;rounded=0;orthogonalLoop=1;jettySize=auto;html=1;entryX=-0.003;entryY=0.653;entryDx=0;entryDy=0;entryPerimeter=0;" edge="1" parent="1" source="gBlH9YvF4Skhn-Lli2iF-88" target="gBlH9YvF4Skhn-Lli2iF-220">
          <mxGeometry relative="1" as="geometry" />
        </mxCell>
        <mxCell id="gBlH9YvF4Skhn-Lli2iF-227" style="edgeStyle=orthogonalEdgeStyle;rounded=0;orthogonalLoop=1;jettySize=auto;html=1;entryX=-0.003;entryY=0.55;entryDx=0;entryDy=0;entryPerimeter=0;" edge="1" parent="1" source="gBlH9YvF4Skhn-Lli2iF-90" target="gBlH9YvF4Skhn-Lli2iF-220">
          <mxGeometry relative="1" as="geometry" />
        </mxCell>
        <mxCell id="gBlH9YvF4Skhn-Lli2iF-228" style="edgeStyle=orthogonalEdgeStyle;rounded=0;orthogonalLoop=1;jettySize=auto;html=1;entryX=0.071;entryY=1.001;entryDx=0;entryDy=0;entryPerimeter=0;" edge="1" parent="1" source="gBlH9YvF4Skhn-Lli2iF-66" target="gBlH9YvF4Skhn-Lli2iF-220">
          <mxGeometry relative="1" as="geometry">
            <Array as="points">
              <mxPoint x="110" y="475" />
              <mxPoint x="110" y="1154" />
              <mxPoint x="778" y="1154" />
            </Array>
          </mxGeometry>
        </mxCell>
        <mxCell id="gBlH9YvF4Skhn-Lli2iF-229" style="edgeStyle=orthogonalEdgeStyle;rounded=0;orthogonalLoop=1;jettySize=auto;html=1;entryX=0.46;entryY=1.001;entryDx=0;entryDy=0;entryPerimeter=0;" edge="1" parent="1" source="gBlH9YvF4Skhn-Lli2iF-67" target="gBlH9YvF4Skhn-Lli2iF-220">
          <mxGeometry relative="1" as="geometry">
            <Array as="points">
              <mxPoint x="140" y="550" />
              <mxPoint x="140" y="1154" />
              <mxPoint x="875" y="1154" />
            </Array>
          </mxGeometry>
        </mxCell>
        <mxCell id="gBlH9YvF4Skhn-Lli2iF-230" style="edgeStyle=orthogonalEdgeStyle;rounded=0;orthogonalLoop=1;jettySize=auto;html=1;strokeColor=#FF6363;" edge="1" parent="1" source="gBlH9YvF4Skhn-Lli2iF-215">
          <mxGeometry relative="1" as="geometry">
            <mxPoint x="-240" y="487" as="targetPoint" />
            <Array as="points">
              <mxPoint x="-490" y="960" />
              <mxPoint x="-490" y="487" />
            </Array>
          </mxGeometry>
        </mxCell>
        <mxCell id="gBlH9YvF4Skhn-Lli2iF-231" style="edgeStyle=orthogonalEdgeStyle;rounded=0;orthogonalLoop=1;jettySize=auto;html=1;entryX=0.052;entryY=-0.023;entryDx=0;entryDy=0;entryPerimeter=0;strokeColor=#FF2121;" edge="1" parent="1" source="gBlH9YvF4Skhn-Lli2iF-215" target="gBlH9YvF4Skhn-Lli2iF-86">
          <mxGeometry relative="1" as="geometry">
            <Array as="points">
              <mxPoint x="160" y="960" />
              <mxPoint x="160" y="460" />
              <mxPoint x="295" y="460" />
            </Array>
          </mxGeometry>
        </mxCell>
        <mxCell id="gBlH9YvF4Skhn-Lli2iF-232" style="edgeStyle=orthogonalEdgeStyle;rounded=0;orthogonalLoop=1;jettySize=auto;html=1;entryX=0.05;entryY=0.549;entryDx=0;entryDy=0;entryPerimeter=0;strokeColor=#FF1313;" edge="1" parent="1" source="gBlH9YvF4Skhn-Lli2iF-215" target="gBlH9YvF4Skhn-Lli2iF-103">
          <mxGeometry relative="1" as="geometry">
            <Array as="points">
              <mxPoint x="740" y="960" />
              <mxPoint x="740" y="501" />
            </Array>
          </mxGeometry>
        </mxCell>
        <mxCell id="gBlH9YvF4Skhn-Lli2iF-216" value="Платежный сервис" style="vsdxID=6;fillColor=#f8cecc;shape=stencil(vVNhD4IgEP01fNQRLJefzf4HS1QWgTsp7d8HoaVRa7PNb8fdO969g4do1tas4Yjg1oA+8U4UpkZ0jwgRquYgjI0QzRHNSg28An1RhT83zCFddNZXd0Pv+7DrIPjmTymOE/rIHDyYwdFWYQAnMd56PIwNMd35TAAZEBs8UPQR60UbgTbMCK1m9JJBxSNLFpWSVbNS23HeBOlhPCnUREtK4/Qz+VI1z+GD/awgJyAfp1uqJtzPak8TfIv/3uXLYlYQ8sMvNng5rRRSeqNO6+/OtCnvaprfAQ==);strokeColor=#b85450;shadow=1;spacingTop=-3;spacingBottom=-3;spacingLeft=-3;spacingRight=-3;points=[];labelBackgroundColor=none;rounded=0;html=1;whiteSpace=wrap;" vertex="1" parent="1">
          <mxGeometry x="-440" y="70" width="250" height="60" as="geometry" />
        </mxCell>
        <mxCell id="gBlH9YvF4Skhn-Lli2iF-233" style="edgeStyle=orthogonalEdgeStyle;rounded=0;orthogonalLoop=1;jettySize=auto;html=1;entryX=0.14;entryY=0.972;entryDx=0;entryDy=0;entryPerimeter=0;strokeColor=#CC0066;" edge="1" parent="1" source="gBlH9YvF4Skhn-Lli2iF-64" target="gBlH9YvF4Skhn-Lli2iF-216">
          <mxGeometry relative="1" as="geometry" />
        </mxCell>
        <mxCell id="gBlH9YvF4Skhn-Lli2iF-234" style="edgeStyle=orthogonalEdgeStyle;rounded=0;orthogonalLoop=1;jettySize=auto;html=1;strokeColor=#CC0066;" edge="1" parent="1" source="gBlH9YvF4Skhn-Lli2iF-86" target="gBlH9YvF4Skhn-Lli2iF-216">
          <mxGeometry relative="1" as="geometry">
            <Array as="points">
              <mxPoint x="210" y="495" />
              <mxPoint x="210" y="-20" />
              <mxPoint x="-315" y="-20" />
            </Array>
          </mxGeometry>
        </mxCell>
        <mxCell id="gBlH9YvF4Skhn-Lli2iF-235" style="edgeStyle=orthogonalEdgeStyle;rounded=0;orthogonalLoop=1;jettySize=auto;html=1;entryX=0.999;entryY=0.378;entryDx=0;entryDy=0;entryPerimeter=0;strokeColor=#CC0066;" edge="1" parent="1" source="gBlH9YvF4Skhn-Lli2iF-103" target="gBlH9YvF4Skhn-Lli2iF-216">
          <mxGeometry relative="1" as="geometry">
            <Array as="points">
              <mxPoint x="945" y="-90" />
              <mxPoint x="352" y="-90" />
              <mxPoint x="352" y="-70" />
              <mxPoint x="-190" y="-70" />
            </Array>
          </mxGeometry>
        </mxCell>
        <mxCell id="gBlH9YvF4Skhn-Lli2iF-144" value="&lt;font style=&quot;font-size: 8px;&quot;&gt;Patroni cluster (Асинхронная репликация и автоматический failover между Primary и Replica)&lt;/font&gt;" style="text;html=1;align=center;verticalAlign=middle;whiteSpace=wrap;rounded=0;" vertex="1" parent="1">
          <mxGeometry x="-412" y="720" width="115" height="50" as="geometry" />
        </mxCell>
      </root>
    </mxGraphModel>
  </diagram>
</mxfile>
